<?xml version="1.0" encoding="UTF-8"?>
<!DOCTYPE svg PUBLIC "-//W3C//DTD SVG 1.1//EN" "http://www.w3.org/Graphics/SVG/1.1/DTD/svg11.dtd">
<svg xmlns="http://www.w3.org/2000/svg" version="1.1" width="1527px" height="1527px" style="shape-rendering:geometricPrecision; text-rendering:geometricPrecision; image-rendering:optimizeQuality; fill-rule:evenodd; clip-rule:evenodd" xmlns:xlink="http://www.w3.org/1999/xlink">
<g><path style="opacity:0.994" fill="#d2c091" d="M 724.5,-0.5 C 750.167,-0.5 775.833,-0.5 801.5,-0.5C 1032.57,16.2707 1220.4,114.271 1365,293.5C 1467.49,427.123 1521.33,578.456 1526.5,747.5C 1526.5,757.5 1526.5,767.5 1526.5,777.5C 1518.81,989.222 1439.47,1168.72 1288.5,1316C 1142.83,1451.09 970.159,1521.26 770.5,1526.5C 765.167,1526.5 759.833,1526.5 754.5,1526.5C 550.575,1521 375.242,1448.16 228.5,1308C 88.4181,1167.42 12.0848,997.583 -0.5,798.5C -0.5,774.5 -0.5,750.5 -0.5,726.5C 13.7752,508.794 102.109,327.961 264.5,184C 397.027,71.9455 550.361,10.4455 724.5,-0.5 Z"/></g>
<g><path style="opacity:1" fill="#fefefe" d="M 726.5,34.5 C 927.519,28.5444 1102.85,91.7111 1252.5,224C 1396.95,358.762 1476.12,525.262 1490,723.5C 1497.13,925.07 1434.46,1101.07 1302,1251.5C 1164.95,1398.7 995.446,1478.2 793.5,1490C 580.725,1495.33 398.559,1424.16 247,1276.5C 116.159,1141.81 45.492,980.141 35,791.5C 29.9132,591.365 93.9132,417.365 227,269.5C 362.598,126.461 529.098,48.128 726.5,34.5 Z"/></g>
<g><path style="opacity:1" fill="#c8b687" d="M 747.5,87.5 C 748.404,88.209 748.737,89.209 748.5,90.5C 746.418,90.472 744.584,91.1387 743,92.5C 743.166,105.839 743.833,119.173 745,132.5C 745.226,135.095 745.726,137.595 746.5,140C 748.81,140.497 751.143,140.663 753.5,140.5C 753.5,141.5 753.5,142.5 753.5,143.5C 744.44,143.457 735.44,144.123 726.5,145.5C 726.281,144.325 726.614,143.325 727.5,142.5C 729.059,141.926 730.559,141.26 732,140.5C 732.636,133.144 732.469,125.811 731.5,118.5C 723.862,119.313 716.196,119.646 708.5,119.5C 708.334,126.175 708.5,132.842 709,139.5C 710.45,142.642 712.95,144.308 716.5,144.5C 707.589,146.215 698.589,147.215 689.5,147.5C 689.5,146.5 689.5,145.5 689.5,144.5C 692.044,144.896 694.211,144.229 696,142.5C 696.176,127.475 695.51,112.475 694,97.5C 693.626,96.5838 693.126,95.7504 692.5,95C 690.527,94.5045 688.527,94.3379 686.5,94.5C 686.5,93.5 686.5,92.5 686.5,91.5C 695.219,91.1979 703.885,91.1979 712.5,91.5C 711.009,93.0116 709.176,94.0116 707,94.5C 706.391,101.189 706.557,107.856 707.5,114.5C 715.223,114.8 722.89,114.467 730.5,113.5C 730.833,112.5 731.167,111.5 731.5,110.5C 730.822,105.186 730.322,99.8525 730,94.5C 727.865,92.7215 725.365,92.0548 722.5,92.5C 722.5,91.5 722.5,90.5 722.5,89.5C 731.037,89.5361 739.37,88.8695 747.5,87.5 Z"/></g>
<g><path style="opacity:1" fill="#c8b686" d="M 755.5,88.5 C 764.5,88.5 773.5,88.5 782.5,88.5C 782.5,89.5 782.5,90.5 782.5,91.5C 780.409,91.3184 778.409,91.6518 776.5,92.5C 775.643,104.489 774.977,116.489 774.5,128.5C 774.463,132.256 774.963,135.922 776,139.5C 777.916,140.928 780.083,141.928 782.5,142.5C 773.167,143.833 763.833,143.833 754.5,142.5C 757.36,141.82 759.86,140.487 762,138.5C 762.667,123.167 762.667,107.833 762,92.5C 759.435,91.5296 757.268,90.1963 755.5,88.5 Z"/></g>
<g><path style="opacity:1" fill="#c8b788" d="M 787.5,88.5 C 798.836,89.2224 810.169,90.0558 821.5,91C 830.729,92.8899 834.229,98.3899 832,107.5C 829.688,111.58 826.188,114.08 821.5,115C 835.295,119.073 838.628,127.24 831.5,139.5C 827.947,142.444 823.947,144.61 819.5,146C 807.469,146.273 795.469,145.773 783.5,144.5C 783.5,143.5 783.5,142.5 783.5,141.5C 786.272,141.78 788.772,141.113 791,139.5C 793.055,124.223 794.055,108.89 794,93.5C 792.509,91.9963 790.676,91.1629 788.5,91C 787.748,90.3292 787.414,89.4959 787.5,88.5 Z"/></g>
<g><path style="opacity:1" fill="#fdfcfb" d="M 807.5,93.5 C 818.495,93.3398 822.662,98.6732 820,109.5C 819.535,110.931 818.701,112.097 817.5,113C 813.514,113.499 809.514,113.666 805.5,113.5C 806.107,106.825 806.773,100.158 807.5,93.5 Z"/></g>
<g><path style="opacity:1" fill="#c8b788" d="M 845.5,93.5 C 859.933,95.1864 874.266,97.5197 888.5,100.5C 887.605,103.808 886.771,107.141 886,110.5C 885.29,111.973 884.124,112.64 882.5,112.5C 882.893,109.07 882.227,105.904 880.5,103C 875.543,101.672 870.543,101.006 865.5,101C 863.805,107.696 862.805,114.53 862.5,121.5C 866.68,122.044 870.847,122.71 875,123.5C 877.354,122.644 878.854,120.977 879.5,118.5C 880.365,117.417 881.365,117.251 882.5,118C 880.818,123.672 880.151,129.506 880.5,135.5C 879.178,135.67 878.011,135.337 877,134.5C 876.907,131.993 876.074,129.826 874.5,128C 870.163,126.93 865.83,126.263 861.5,126C 859.506,132.938 858.839,139.938 859.5,147C 865.388,148.794 871.388,149.461 877.5,149C 887.853,137.647 889.187,139.147 881.5,153.5C 880,153.833 878.5,154.167 877,154.5C 863.267,151.775 849.433,149.775 835.5,148.5C 835.5,147.5 835.5,146.5 835.5,145.5C 838.187,145.664 840.854,145.497 843.5,145C 844.701,144.097 845.535,142.931 846,141.5C 848.578,127.204 850.578,112.87 852,98.5C 849.359,97.2683 847.193,95.6016 845.5,93.5 Z"/></g>
<g><path style="opacity:1" fill="#c8b787" d="M 680.5,92.5 C 681.978,92.238 683.311,92.5713 684.5,93.5C 681.567,94.93 679.067,96.93 677,99.5C 673.925,114.883 669.592,129.883 664,144.5C 661.922,149.568 658.755,153.734 654.5,157C 648.704,158.482 645.704,156.149 645.5,150C 645.833,149.167 646.167,148.333 646.5,147.5C 651.386,149.161 655.886,148.494 660,145.5C 660.667,143.5 660.667,141.5 660,139.5C 651.552,127.384 642.718,115.551 633.5,104C 631.527,103.505 629.527,103.338 627.5,103.5C 627.5,102.5 627.5,101.5 627.5,100.5C 635.382,99.9283 643.216,98.9283 651,97.5C 654.04,98.3896 653.873,99.3896 650.5,100.5C 649.417,101.365 649.251,102.365 650,103.5C 655.087,111.341 660.42,119.008 666,126.5C 669.835,117.324 671.335,107.824 670.5,98C 668.1,97.8142 665.766,97.3142 663.5,96.5C 663.709,95.914 664.043,95.414 664.5,95C 670.025,94.4804 675.358,93.6471 680.5,92.5 Z"/></g>
<g><path style="opacity:1" fill="#cab98b" d="M 586.5,94.5 C 588.344,95.2039 588.844,96.5372 588,98.5C 584.224,107.641 577.391,111.474 567.5,110C 561.483,107.283 560.983,103.783 566,99.5C 570.269,105.239 575.436,106.073 581.5,102C 584.2,100.143 585.866,97.6433 586.5,94.5 Z"/></g>
<g><path style="opacity:1" fill="#c8b787" d="M 898.5,101.5 C 910.274,103.86 921.941,106.693 933.5,110C 941.595,115.179 943.762,122.346 940,131.5C 936.437,138.032 930.937,141.032 923.5,140.5C 920.375,140.565 917.375,140.065 914.5,139C 914.043,138.586 913.709,138.086 913.5,137.5C 921.215,138.278 926.048,134.945 928,127.5C 929.068,122.232 928.401,117.232 926,112.5C 923.412,110.635 920.578,109.802 917.5,110C 913.341,124.322 909.675,138.822 906.5,153.5C 906.667,154.167 906.833,154.833 907,155.5C 909.296,157.057 911.462,158.724 913.5,160.5C 912.833,160.833 912.167,161.167 911.5,161.5C 902.735,159.476 894.068,157.142 885.5,154.5C 885.709,153.914 886.043,153.414 886.5,153C 888.81,152.503 891.143,152.337 893.5,152.5C 897.785,138.578 901.118,124.411 903.5,110C 904.251,106.489 902.918,104.489 899.5,104C 898.748,103.329 898.414,102.496 898.5,101.5 Z"/></g>
<g><path style="opacity:1" fill="#c8b788" d="M 603.5,105.5 C 605.288,105.215 606.955,105.548 608.5,106.5C 606.108,107.892 604.441,109.892 603.5,112.5C 607.139,127.259 611.473,141.759 616.5,156C 618.9,156.186 621.234,156.686 623.5,157.5C 615.008,160.747 606.341,163.413 597.5,165.5C 597.83,162.891 599.33,161.224 602,160.5C 602.167,159.333 602.333,158.167 602.5,157C 600.344,146.202 597.344,135.702 593.5,125.5C 588.543,136.87 583.876,148.37 579.5,160C 580.313,165.046 583.313,166.879 588.5,165.5C 588.5,166.5 588.5,167.5 588.5,168.5C 580.217,169.946 572.05,171.946 564,174.5C 563.5,174.167 563,173.833 562.5,173.5C 563.436,172.026 564.77,171.026 566.5,170.5C 566.833,169.333 567.167,168.167 567.5,167C 564.749,152.992 561.249,139.158 557,125.5C 554.519,123.686 551.685,123.02 548.5,123.5C 548.5,122.5 548.5,121.5 548.5,120.5C 556.921,118.978 565.255,116.978 573.5,114.5C 571.94,116.816 570.606,119.316 569.5,122C 571.609,132.711 574.442,143.211 578,153.5C 583.491,142.024 587.991,130.19 591.5,118C 591.441,116.564 591.108,115.231 590.5,114C 588.1,113.814 585.766,113.314 583.5,112.5C 590.279,110.16 596.946,107.826 603.5,105.5 Z"/></g>
<g><path style="opacity:1" fill="#fdfdfb" d="M 805.5,116.5 C 819.567,117.617 824.4,124.951 820,138.5C 815.669,144.309 810.669,144.976 805,140.5C 804.643,132.495 804.81,124.495 805.5,116.5 Z"/></g>
<g><path style="opacity:1" fill="#c8b687" d="M 970.5,120.5 C 982.038,121.513 992.704,125.013 1002.5,131C 1000.7,135.446 998.528,139.613 996,143.5C 996.829,133.929 992.329,127.762 982.5,125C 976.394,123.413 971.228,124.913 967,129.5C 957.102,141.39 955.102,154.39 961,168.5C 966.276,175.704 973.11,177.87 981.5,175C 984.613,173.146 987.613,171.48 990.5,170C 990.833,170.333 991.167,170.667 991.5,171C 987.09,179.089 980.423,182.089 971.5,180C 945.23,172.962 937.73,157.128 949,132.5C 954.491,125.178 961.658,121.178 970.5,120.5 Z"/></g>
<g><path style="opacity:1" fill="#c8b687" d="M 538.5,123.5 C 539.675,123.281 540.675,123.614 541.5,124.5C 539.374,125.901 537.707,127.734 536.5,130C 541.616,144.563 547.282,158.896 553.5,173C 556.226,173.182 558.893,173.682 561.5,174.5C 553.429,177.636 545.429,180.969 537.5,184.5C 537.167,184 536.833,183.5 536.5,183C 540.125,180.785 541.292,177.618 540,173.5C 536.577,163.557 532.577,153.89 528,144.5C 525.003,156.82 521.503,168.987 517.5,181C 519.062,185.668 522.395,187.835 527.5,187.5C 519.509,190.828 511.509,194.162 503.5,197.5C 502.479,196.998 502.312,196.332 503,195.5C 505.178,194.353 506.678,192.687 507.5,190.5C 503.494,177.981 498.994,165.647 494,153.5C 493.117,150.898 491.617,148.731 489.5,147C 487.064,147.053 484.731,146.887 482.5,146.5C 490.396,143.228 498.396,139.894 506.5,136.5C 507.429,138.322 506.762,139.655 504.5,140.5C 503.369,142.074 503.202,143.741 504,145.5C 507.354,155.069 511.187,164.402 515.5,173.5C 519.451,162.364 522.785,151.031 525.5,139.5C 525.51,134.006 523.01,132.339 518,134.5C 517.833,134 517.667,133.5 517.5,133C 524.552,129.984 531.552,126.818 538.5,123.5 Z"/></g>
<g><path style="opacity:1" fill="#c8b687" d="M 1011.5,133.5 C 1019.51,137.172 1027.51,140.838 1035.5,144.5C 1032.97,145.214 1030.47,145.88 1028,146.5C 1022.68,156.676 1018.51,167.01 1015.5,177.5C 1026.33,171.921 1036.99,166.087 1047.5,160C 1050.56,156.433 1050.06,153.599 1046,151.5C 1045.25,150.365 1045.42,149.365 1046.5,148.5C 1054.29,151.981 1061.95,155.648 1069.5,159.5C 1066.89,160.318 1064.23,160.818 1061.5,161C 1055.28,173.648 1049.45,186.481 1044,199.5C 1043.33,201.167 1043.33,202.833 1044,204.5C 1045.97,205.305 1047.47,206.639 1048.5,208.5C 1047.83,208.833 1047.17,209.167 1046.5,209.5C 1038.65,206.075 1030.99,202.408 1023.5,198.5C 1027.2,198.134 1030.37,196.801 1033,194.5C 1036.71,185.413 1040.71,176.413 1045,167.5C 1045.67,166.5 1045.67,165.5 1045,164.5C 1034.74,170.714 1024.24,176.547 1013.5,182C 1009.43,185.656 1009.59,189.156 1014,192.5C 1014.75,193.635 1014.58,194.635 1013.5,195.5C 1005.34,191.678 997.339,187.678 989.5,183.5C 992.309,183.476 995.143,183.143 998,182.5C 1004.85,168.962 1011.02,155.128 1016.5,141C 1015.68,138.846 1014.18,137.346 1012,136.5C 1011.52,135.552 1011.35,134.552 1011.5,133.5 Z"/></g>
<g><path style="opacity:1" fill="#c8b687" d="M 473.5,149.5 C 474.497,149.47 475.164,149.97 475.5,151C 474.924,152.714 473.757,153.881 472,154.5C 471.333,155.833 471.333,157.167 472,158.5C 477.651,169.802 483.318,181.136 489,192.5C 490.141,194.609 491.641,196.442 493.5,198C 495.851,197.86 498.184,197.36 500.5,196.5C 500.719,197.675 500.386,198.675 499.5,199.5C 492.167,203.167 484.833,206.833 477.5,210.5C 477.167,210.167 476.833,209.833 476.5,209.5C 477.48,208.019 478.647,206.685 480,205.5C 478.513,197.85 475.346,190.85 470.5,184.5C 463.833,188.167 457.167,191.833 450.5,195.5C 453.412,201.658 456.579,207.658 460,213.5C 462.283,214.719 464.616,214.719 467,213.5C 468.257,213.85 468.591,214.517 468,215.5C 460.365,219.485 452.698,223.485 445,227.5C 444.5,227 444,226.5 443.5,226C 445.557,224.281 447.224,222.281 448.5,220C 442.089,206.344 435.255,192.844 428,179.5C 425.177,179.08 422.344,178.747 419.5,178.5C 426.936,174.365 434.436,170.365 442,166.5C 442.5,166.833 443,167.167 443.5,167.5C 441.959,169.204 440.625,171.037 439.5,173C 442.094,179.021 445.094,184.855 448.5,190.5C 455.523,187.325 462.189,183.659 468.5,179.5C 465.921,174.008 463.088,168.675 460,163.5C 457.667,162.167 455.333,162.167 453,163.5C 452.5,163 452,162.5 451.5,162C 459.026,158.073 466.36,153.906 473.5,149.5 Z"/></g>
<g><path style="opacity:1" fill="#c8b787" d="M 1077.5,162.5 C 1092.18,171.844 1107.51,180.177 1123.5,187.5C 1119.92,191.653 1116.59,195.986 1113.5,200.5C 1112.5,200.167 1111.83,199.5 1111.5,198.5C 1115.77,190.745 1113.77,185.578 1105.5,183C 1104.22,182.316 1103.05,182.483 1102,183.5C 1095.33,195.5 1088.67,207.5 1082,219.5C 1080.7,223.154 1081.7,225.821 1085,227.5C 1085.75,228.635 1085.58,229.635 1084.5,230.5C 1075.97,225.737 1067.63,220.737 1059.5,215.5C 1062.97,215.574 1066.47,215.241 1070,214.5C 1077.25,202.329 1084.25,189.996 1091,177.5C 1091.75,176.365 1091.58,175.365 1090.5,174.5C 1087.49,172.746 1084.33,171.412 1081,170.5C 1077.18,171.644 1073.85,173.644 1071,176.5C 1070.67,176.167 1070.33,175.833 1070,175.5C 1072.14,171.135 1074.64,166.801 1077.5,162.5 Z"/></g>
<g><path style="opacity:1" fill="#c8b787" d="M 1127.5,191.5 C 1139.44,199.48 1151.44,207.48 1163.5,215.5C 1160.86,219.309 1158.02,222.976 1155,226.5C 1154.13,225.892 1153.63,225.059 1153.5,224C 1155.16,221.349 1155.66,218.516 1155,215.5C 1151.1,210.899 1146.43,208.233 1141,207.5C 1137.7,212.969 1134.2,218.302 1130.5,223.5C 1134.27,226.774 1138.44,229.441 1143,231.5C 1145.16,230.756 1147.16,229.756 1149,228.5C 1149.5,228.833 1150,229.167 1150.5,229.5C 1147.17,233.492 1144.34,237.825 1142,242.5C 1140.99,243.337 1139.82,243.67 1138.5,243.5C 1139.26,240.859 1139.43,238.192 1139,235.5C 1135.88,232.543 1132.38,230.21 1128.5,228.5C 1124.29,232.553 1120.79,237.22 1118,242.5C 1117.33,243.833 1117.33,245.167 1118,246.5C 1121.55,249.719 1125.39,252.552 1129.5,255C 1134.64,255.51 1139.14,254.01 1143,250.5C 1144.23,251.275 1144.56,252.275 1144,253.5C 1140.67,256.661 1137,259.328 1133,261.5C 1120.6,253.049 1108.1,244.715 1095.5,236.5C 1096.17,236.167 1096.83,235.833 1097.5,235.5C 1100.34,237.102 1103.34,237.602 1106.5,237C 1114.79,224.92 1122.96,212.753 1131,200.5C 1131.45,197.906 1130.45,195.906 1128,194.5C 1127.52,193.552 1127.35,192.552 1127.5,191.5 Z"/></g>
<g><path style="opacity:1" fill="#d2c091" d="M 726.5,194.5 C 906.4,187.742 1058.23,249.075 1182,378.5C 1299.84,511.737 1347.5,667.07 1325,844.5C 1299.18,1003.17 1222.01,1130 1093.5,1225C 968.327,1311.54 829.994,1344.87 678.5,1325C 530.747,1300.24 409.914,1230.07 316,1114.5C 207.311,970.497 171.644,809.831 209,632.5C 249.251,474.372 339.085,353.539 478.5,270C 555.498,225.943 638.165,200.776 726.5,194.5 Z"/></g>
<g><path style="opacity:1" fill="#fedc04" d="M 779.5,219.5 C 790.266,231.93 800.266,244.93 809.5,258.5C 826.462,283.533 838.295,310.866 845,340.5C 846.958,351.416 848.125,362.416 848.5,373.5C 847.533,385.533 846.2,397.533 844.5,409.5C 844.52,410.726 844.853,411.726 845.5,412.5C 841.996,425.162 838.163,437.829 834,450.5C 829.458,461.613 822.958,471.28 814.5,479.5C 798.255,494.914 781.255,509.414 763.5,523C 743.626,541.873 724.793,561.706 707,582.5C 703.241,587.691 699.741,593.024 696.5,598.5C 695.957,598.56 695.624,598.893 695.5,599.5C 704.81,600.498 714.143,600.832 723.5,600.5C 728.833,600.5 734.167,600.5 739.5,600.5C 746.377,602.092 753.377,602.426 760.5,601.5C 761.263,602.268 762.263,602.768 763.5,603C 792.251,606.394 820.917,610.06 849.5,614C 842.37,602.905 834.87,592.072 827,581.5C 823.573,576.57 819.406,572.57 814.5,569.5C 828.587,571.884 842.587,574.717 856.5,578C 858.066,578.608 859.4,579.442 860.5,580.5C 860.062,580.435 859.728,580.601 859.5,581C 868.005,594.338 876.005,608.005 883.5,622C 901.875,626.177 920.208,630.51 938.5,635C 951.285,638.291 963.285,636.624 974.5,630C 983.81,620.51 993.81,612.01 1004.5,604.5C 1023.46,591.184 1043.79,580.184 1065.5,571.5C 1065.56,572.043 1065.89,572.376 1066.5,572.5C 1100.46,560.213 1135.46,555.713 1171.5,559C 1191.02,560.642 1210.35,563.476 1229.5,567.5C 1244.54,571.625 1259.54,575.958 1274.5,580.5C 1280.22,583.353 1286.22,585.686 1292.5,587.5C 1289.97,594.889 1286.64,601.889 1282.5,608.5C 1274.32,622.203 1265.65,635.536 1256.5,648.5C 1245.1,661.408 1233.1,673.908 1220.5,686C 1200.36,703.575 1177.36,716.241 1151.5,724C 1140.05,726.588 1128.71,729.088 1117.5,731.5C 1102.85,732.518 1088.18,732.685 1073.5,732C 1063.69,730.672 1054.35,727.839 1045.5,723.5C 1021.56,708.19 997.23,693.357 972.5,679C 947.379,666.353 921.546,655.519 895,646.5C 899.11,659.257 902.776,672.257 906,685.5C 906.48,687.133 907.313,688.466 908.5,689.5C 907.957,689.56 907.624,689.893 907.5,690.5C 909.145,695.748 910.479,701.081 911.5,706.5C 911.942,707.739 912.609,708.739 913.5,709.5C 912.903,709.735 912.57,710.235 912.5,711C 918.856,739.636 924.189,768.469 928.5,797.5C 940.146,784.189 950.813,770.189 960.5,755.5C 962.426,767.654 964.092,779.988 965.5,792.5C 965.377,793.925 965.043,795.258 964.5,796.5C 954.606,808.569 944.106,820.235 933,831.5C 933.34,854.963 935.34,878.296 939,901.5C 940.768,909.535 944.934,916.035 951.5,921C 963.055,927.604 974.388,934.438 985.5,941.5C 1004.13,955.796 1020.8,972.129 1035.5,990.5C 1058.89,1021.95 1074.72,1056.95 1083,1095.5C 1086.61,1112.85 1089.45,1130.18 1091.5,1147.5C 1091.5,1163.17 1091.5,1178.83 1091.5,1194.5C 1091.55,1200.2 1091.22,1205.86 1090.5,1211.5C 1083.98,1211.47 1077.64,1210.47 1071.5,1208.5C 1055.52,1205.73 1039.85,1201.73 1024.5,1196.5C 996.461,1186.15 970.795,1171.65 947.5,1153C 927.3,1135.06 911.633,1113.89 900.5,1089.5C 891.504,1071.51 886.17,1052.51 884.5,1032.5C 884.751,1027.82 885.084,1023.15 885.5,1018.5C 890.833,994.162 896.667,969.829 903,945.5C 907.302,923.013 910.135,900.346 911.5,877.5C 912.822,868.658 912.822,859.658 911.5,850.5C 910.893,850.624 910.56,850.957 910.5,851.5C 899.817,859.498 888.817,867.165 877.5,874.5C 876.548,876.045 876.215,877.712 876.5,879.5C 875.842,878.602 875.176,877.602 874.5,876.5C 869.139,879.844 863.805,883.178 858.5,886.5C 857.508,886.328 856.842,886.662 856.5,887.5C 831.007,902.417 805.007,916.583 778.5,930C 795.304,937.212 812.637,942.712 830.5,946.5C 817.375,953.656 803.708,959.656 789.5,964.5C 789.423,963.25 788.756,962.417 787.5,962C 773.705,956.458 760.038,950.624 746.5,944.5C 725.47,952.455 704.803,961.289 684.5,971C 680.39,973.809 676.557,976.975 673,980.5C 670.449,984.935 668.449,989.601 667,994.5C 664.864,1006.35 662.03,1018.02 658.5,1029.5C 651.124,1051.58 641.124,1072.25 628.5,1091.5C 604.671,1124.49 575.004,1150.99 539.5,1171C 525.141,1179.01 510.474,1186.18 495.5,1192.5C 481.125,1198.29 466.458,1203.29 451.5,1207.5C 445.888,1208.99 440.222,1210.32 434.5,1211.5C 433.669,1204.67 432.669,1198.01 431.5,1191.5C 429.835,1175.55 429.168,1159.55 429.5,1143.5C 429.727,1100.24 441.56,1060.57 465,1024.5C 473.26,1013.4 482.427,1003.07 492.5,993.5C 505.661,980.528 520.661,970.028 537.5,962C 543.828,960.003 550.161,958.17 556.5,956.5C 584.631,955.185 612.964,953.019 641.5,950C 668.648,945.571 695.315,939.238 721.5,931C 722.833,930.333 722.833,929.667 721.5,929C 709.991,920.977 698.657,912.811 687.5,904.5C 682.654,899.389 677.321,894.723 671.5,890.5C 659.396,879.567 647.396,868.4 635.5,857C 625.636,847.47 616.136,837.637 607,827.5C 605.846,835.842 605.346,844.342 605.5,853C 605.568,862.854 605.902,872.687 606.5,882.5C 595.745,872.415 586.079,861.415 577.5,849.5C 579.223,834.102 581.223,818.602 583.5,803C 571.637,789.47 560.137,775.637 549,761.5C 541.945,753.768 533.778,747.601 524.5,743C 507.817,742.883 491.15,743.383 474.5,744.5C 451.763,744.492 429.43,741.492 407.5,735.5C 365.734,722.121 329.067,700.288 297.5,670C 287.902,660.907 278.902,651.407 270.5,641.5C 260.754,629.762 251.42,617.762 242.5,605.5C 239.222,599.868 235.888,594.201 232.5,588.5C 238.702,584.899 245.036,581.566 251.5,578.5C 266.639,571.453 282.306,565.786 298.5,561.5C 341.554,548.024 384.554,548.191 427.5,562C 437.64,566.238 447.64,570.738 457.5,575.5C 474.968,584.153 490.135,595.82 503,610.5C 506.096,615.028 508.929,619.695 511.5,624.5C 521.002,645.492 529.835,666.826 538,688.5C 552.212,719.276 569.212,748.276 589,775.5C 593.147,761.226 597.98,747.226 603.5,733.5C 605.891,727.051 608.558,720.718 611.5,714.5C 623.012,686.974 636.012,660.141 650.5,634C 632.835,636.832 615.835,641.998 599.5,649.5C 601.179,643.807 603.679,638.474 607,633.5C 610.585,627.998 613.919,622.331 617,616.5C 617.759,614.937 618.926,613.937 620.5,613.5C 635.969,609.305 651.636,605.805 667.5,603C 677.541,586.416 687.708,569.916 698,553.5C 703.658,543.871 705.992,533.538 705,522.5C 698.893,508.97 693.393,495.304 688.5,481.5C 681.973,459.621 677.973,437.287 676.5,414.5C 676.495,374.568 684.662,336.234 701,299.5C 707.67,285.491 714.836,271.824 722.5,258.5C 730.422,244.984 739.089,231.984 748.5,219.5C 752.772,213.89 757.438,208.557 762.5,203.5C 768.187,208.855 773.854,214.188 779.5,219.5 Z"/></g>
<g><path style="opacity:1" fill="#fefefd" d="M 748.5,219.5 C 739.089,231.984 730.422,244.984 722.5,258.5C 579.862,271.465 462.696,332.465 371,441.5C 341.351,478.028 317.184,518.028 298.5,561.5C 282.306,565.786 266.639,571.453 251.5,578.5C 299.1,449.785 382.767,351.952 502.5,285C 579.294,243.608 661.294,221.775 748.5,219.5 Z"/></g>
<g><path style="opacity:1" fill="#fefefd" d="M 779.5,219.5 C 935.846,226.934 1066.35,288.268 1171,403.5C 1216.75,455.63 1251.25,514.63 1274.5,580.5C 1259.54,575.958 1244.54,571.625 1229.5,567.5C 1182.53,457.417 1106.53,373.584 1001.5,316C 941.19,284.396 877.19,265.229 809.5,258.5C 800.266,244.93 790.266,231.93 779.5,219.5 Z"/></g>
<g><path style="opacity:1" fill="#c8b687" d="M 392.5,194.5 C 393.675,194.281 394.675,194.614 395.5,195.5C 394.52,196.981 393.353,198.315 392,199.5C 393.179,206.203 396.346,211.869 401.5,216.5C 406.953,211.606 413.287,208.606 420.5,207.5C 432.136,209.656 436.969,216.656 435,228.5C 432.608,234.226 428.774,238.726 423.5,242C 409.152,250.187 395.485,259.354 382.5,269.5C 382.167,269 381.833,268.5 381.5,268C 383.983,265.597 383.983,263.264 381.5,261C 371.659,254.58 361.993,247.913 352.5,241C 351.833,240.333 351.167,240.333 350.5,241C 355.059,252.677 359.226,264.51 363,276.5C 365.711,277.926 368.211,277.592 370.5,275.5C 371.583,276.365 371.749,277.365 371,278.5C 360.891,286.141 351.058,294.141 341.5,302.5C 341.729,300.052 341.729,297.552 341.5,295C 337.554,292.443 333.387,290.277 329,288.5C 324.414,290.916 320.581,294.249 317.5,298.5C 319.121,303.037 321.121,307.371 323.5,311.5C 326.125,312.38 328.458,311.713 330.5,309.5C 331.5,309.833 332.167,310.5 332.5,311.5C 320.815,321.018 310.315,331.685 301,343.5C 300.308,342.975 299.808,342.308 299.5,341.5C 301.117,339.368 301.617,337.035 301,334.5C 296.301,329.466 291.301,324.8 286,320.5C 280.833,326.167 275.667,331.833 270.5,337.5C 274.959,341.457 279.292,345.624 283.5,350C 286.945,352.222 289.945,351.722 292.5,348.5C 293.308,348.808 293.975,349.308 294.5,350C 288.883,356.073 283.383,362.239 278,368.5C 276.703,369.784 275.536,369.617 274.5,368C 276.406,366.144 277.24,363.977 277,361.5C 266.77,350.601 255.937,340.434 244.5,331C 241.82,330.665 239.487,331.499 237.5,333.5C 236.692,333.192 236.025,332.692 235.5,332C 240.983,325.35 246.983,319.183 253.5,313.5C 253.833,313.833 254.167,314.167 254.5,314.5C 252.883,316.632 252.383,318.965 253,321.5C 257.054,326.057 261.554,330.057 266.5,333.5C 272.351,328.483 277.684,322.983 282.5,317C 278.357,312.767 274.023,308.767 269.5,305C 266.364,303.959 263.864,304.793 262,307.5C 261.308,306.975 260.808,306.308 260.5,305.5C 265.796,298.869 271.463,292.535 277.5,286.5C 278.308,286.808 278.975,287.308 279.5,288C 277.718,290.243 277.218,292.743 278,295.5C 288.071,305.116 298.238,314.616 308.5,324C 311.51,326.222 314.01,325.722 316,322.5C 318.374,319.199 319.04,315.533 318,311.5C 312.368,296.242 306.201,281.242 299.5,266.5C 301.817,264.684 303.984,262.684 306,260.5C 320.432,269.301 335.265,277.468 350.5,285C 357.194,286.176 359.694,283.343 358,276.5C 354.016,260.731 349.183,245.231 343.5,230C 345.759,228.285 347.926,226.452 350,224.5C 364.08,234.124 378.247,243.624 392.5,253C 396.533,254.04 400.199,253.374 403.5,251C 404.797,248.455 404.631,245.955 403,243.5C 395.667,232.167 388.333,220.833 381,209.5C 378.143,208.857 375.309,208.524 372.5,208.5C 379.461,204.197 386.128,199.531 392.5,194.5 Z"/></g>
<g><path style="opacity:1" fill="#fcfcfa" d="M 409.5,215.5 C 418.755,217.422 424.422,223.088 426.5,232.5C 425.871,238.631 422.538,241.131 416.5,240C 411.095,233.858 406.428,227.191 402.5,220C 404.592,217.964 406.926,216.464 409.5,215.5 Z"/></g>
<g><path style="opacity:1" fill="#c8b787" d="M 1173.5,221.5 C 1186.67,232.826 1200.34,243.66 1214.5,254C 1210.67,257.833 1206.83,261.667 1203,265.5C 1202.31,264.975 1201.81,264.308 1201.5,263.5C 1206.26,256.917 1205.26,251.417 1198.5,247C 1197.24,246.018 1195.91,245.685 1194.5,246C 1185.79,257.258 1176.95,268.424 1168,279.5C 1167.33,281.167 1167.33,282.833 1168,284.5C 1170.08,286.172 1170.41,287.839 1169,289.5C 1161.63,283.293 1154.13,277.293 1146.5,271.5C 1146.81,270.692 1147.31,270.025 1148,269.5C 1150.75,272.663 1153.92,273.496 1157.5,272C 1167.59,260.614 1176.76,248.78 1185,236.5C 1179.12,229.434 1172.62,228.768 1165.5,234.5C 1164.69,234.192 1164.03,233.692 1163.5,233C 1167.44,229.571 1170.77,225.737 1173.5,221.5 Z"/></g>
<g><path style="opacity:1" fill="#039845" d="M 722.5,258.5 C 714.836,271.824 707.67,285.491 701,299.5C 684.662,336.234 676.495,374.568 676.5,414.5C 673.259,409.024 669.759,403.691 666,398.5C 648.616,382.627 631.616,366.294 615,349.5C 604.989,337.477 598.155,323.811 594.5,308.5C 572.498,323.166 558.998,343.499 554,369.5C 551.753,394.76 559.086,416.76 576,435.5C 581.167,440.667 586.333,445.833 591.5,451C 608.325,463.246 625.325,475.246 642.5,487C 646.369,490.534 649.869,494.367 653,498.5C 656.197,504.777 656.197,511.111 653,517.5C 638.68,546.157 622.347,573.491 604,599.5C 593.5,617.833 583,636.167 572.5,654.5C 562.861,639.218 555.361,622.885 550,605.5C 543.869,577.716 537.202,550.049 530,522.5C 519.999,491.962 501.499,468.129 474.5,451C 442.492,436.067 412.492,439.4 384.5,461C 396.421,469.586 406.254,480.086 414,492.5C 426.782,515.731 438.782,539.397 450,563.5C 452.725,567.385 455.225,571.385 457.5,575.5C 447.64,570.738 437.64,566.238 427.5,562C 384.554,548.191 341.554,548.024 298.5,561.5C 317.184,518.028 341.351,478.028 371,441.5C 462.696,332.465 579.862,271.465 722.5,258.5 Z"/></g>
<g><path style="opacity:1" fill="#049845" d="M 809.5,258.5 C 877.19,265.229 941.19,284.396 1001.5,316C 1106.53,373.584 1182.53,457.417 1229.5,567.5C 1210.35,563.476 1191.02,560.642 1171.5,559C 1135.46,555.713 1100.46,560.213 1066.5,572.5C 1065.89,572.376 1065.56,572.043 1065.5,571.5C 1069.8,566.353 1073.97,561.02 1078,555.5C 1083.94,543.286 1089.61,530.953 1095,518.5C 1101.88,501.885 1111.38,487.052 1123.5,474C 1129.03,469.64 1134.69,465.474 1140.5,461.5C 1115.39,441.577 1087.39,436.077 1056.5,445C 1038.61,452.56 1024.77,464.726 1015,481.5C 1011.33,488.833 1007.67,496.167 1004,503.5C 997.641,524.273 990.974,544.94 984,565.5C 981.229,572.233 976.729,577.399 970.5,581C 957.377,581.092 944.377,579.759 931.5,577C 909.505,571.335 887.505,565.668 865.5,560C 845.054,555.812 824.72,551.312 804.5,546.5C 822.228,526.656 842.561,510.156 865.5,497C 883.955,487.526 901.621,476.859 918.5,465C 939,449.177 954.166,429.343 964,405.5C 976.238,365.048 965.072,332.714 930.5,308.5C 925.936,322.964 918.769,335.964 909,347.5C 891.692,365.141 874.025,382.474 856,399.5C 852.287,403.708 848.787,408.041 845.5,412.5C 844.853,411.726 844.52,410.726 844.5,409.5C 846.2,397.533 847.533,385.533 848.5,373.5C 848.125,362.416 846.958,351.416 845,340.5C 838.295,310.866 826.462,283.533 809.5,258.5 Z"/></g>
<g><path style="opacity:1" fill="#fbfaf7" d="M 307.5,275.5 C 312.473,278.321 317.473,281.155 322.5,284C 323.451,284.718 323.617,285.551 323,286.5C 320.933,289.07 318.433,291.07 315.5,292.5C 312.442,286.98 309.775,281.313 307.5,275.5 Z"/></g>
<g><path style="opacity:1" fill="#c8b787" d="M 1228.5,269.5 C 1235.45,275.114 1242.12,281.114 1248.5,287.5C 1248,287.833 1247.5,288.167 1247,288.5C 1244.67,286.957 1242.17,286.457 1239.5,287C 1229.67,297.5 1219.83,308 1210,318.5C 1209.35,320.235 1209.52,321.902 1210.5,323.5C 1212.97,325.32 1215.64,326.654 1218.5,327.5C 1221.73,326.554 1224.73,325.054 1227.5,323C 1236.67,315.833 1245.83,308.667 1255,301.5C 1255.67,299.833 1255.67,298.167 1255,296.5C 1253.92,295.335 1253.08,294.002 1252.5,292.5C 1253.36,291.417 1254.36,291.251 1255.5,292C 1259.89,296.723 1263.89,301.723 1267.5,307C 1262.38,318.077 1257.38,329.244 1252.5,340.5C 1264.6,338.469 1276.6,335.135 1288.5,330.5C 1292.82,335.125 1297.16,339.792 1301.5,344.5C 1299.67,345.288 1298,344.788 1296.5,343C 1294.83,342.333 1293.17,342.333 1291.5,343C 1281.33,352.5 1271.17,362 1261,371.5C 1259.36,377.562 1261.53,381.896 1267.5,384.5C 1272.12,382.521 1276.46,380.021 1280.5,377C 1289.14,370.689 1297.47,364.022 1305.5,357C 1304.83,355.333 1304.17,353.667 1303.5,352C 1303.63,350.941 1304.13,350.108 1305,349.5C 1312.92,361.01 1321.09,372.343 1329.5,383.5C 1326.89,386.144 1323.89,388.311 1320.5,390C 1319.06,390.781 1317.72,390.614 1316.5,389.5C 1318.99,387.341 1320.66,384.674 1321.5,381.5C 1319.67,376.341 1316.67,372.008 1312.5,368.5C 1307.17,372.5 1301.83,376.5 1296.5,380.5C 1298.96,383.914 1301.29,387.414 1303.5,391C 1306.53,391.495 1309.53,391.329 1312.5,390.5C 1312.72,391.675 1312.39,392.675 1311.5,393.5C 1306.99,396.253 1302.66,399.253 1298.5,402.5C 1297.24,400.438 1297.74,398.772 1300,397.5C 1299.62,392.567 1297.45,388.401 1293.5,385C 1292.17,384.333 1290.83,384.333 1289.5,385C 1285.78,388.385 1281.78,391.385 1277.5,394C 1276.29,397.025 1276.79,399.859 1279,402.5C 1281.13,405.63 1283.63,408.463 1286.5,411C 1290.95,411.271 1295.29,411.437 1299.5,411.5C 1298.91,412.799 1297.91,413.632 1296.5,414C 1292.85,415.445 1289.18,416.445 1285.5,417C 1277.12,405.743 1268.62,394.577 1260,383.5C 1259.14,381.913 1258.47,380.246 1258,378.5C 1253.02,372.684 1247.85,367.017 1242.5,361.5C 1244.56,360.239 1246.23,360.739 1247.5,363C 1248.5,363.667 1249.5,363.667 1250.5,363C 1259.8,355.371 1268.8,347.371 1277.5,339C 1263.16,342.168 1249.16,346.668 1235.5,352.5C 1234.17,351.833 1233.17,350.833 1232.5,349.5C 1239.63,336.079 1246.63,322.579 1253.5,309C 1243.24,315.592 1233.4,323.092 1224,331.5C 1223.62,334.768 1224.45,337.768 1226.5,340.5C 1226.17,340.833 1225.83,341.167 1225.5,341.5C 1221.29,336.946 1216.96,332.446 1212.5,328C 1211.5,327.667 1210.5,327.333 1209.5,327C 1203.97,321.134 1198.14,315.634 1192,310.5C 1191.44,309.275 1191.77,308.275 1193,307.5C 1195,309.922 1197.5,310.755 1200.5,310C 1211.75,299.585 1222.09,288.418 1231.5,276.5C 1229.98,274.338 1228.98,272.005 1228.5,269.5 Z"/></g>
<g><path style="opacity:1" fill="#c8b687" d="M 228.5,349.5 C 241.078,348.872 251.245,353.539 259,363.5C 267.81,384.395 261.976,399.895 241.5,410C 229.644,412.15 219.477,408.984 211,400.5C 200.509,383.551 202.675,368.384 217.5,355C 221.3,353.1 224.967,351.267 228.5,349.5 Z"/></g>
<g><path style="opacity:1" fill="#fefdfd" d="M 218.5,360.5 C 236.424,360.71 249.59,368.71 258,384.5C 258.531,392.276 255.031,397.109 247.5,399C 232.605,399.469 220.772,393.636 212,381.5C 209.186,376.994 208.853,372.327 211,367.5C 213.396,364.933 215.896,362.6 218.5,360.5 Z"/></g>
<g><path style="opacity:1" fill="#c7b686" d="M 1334.5,393.5 C 1336.02,393.511 1337.18,394.177 1338,395.5C 1341.58,402.33 1345.41,408.997 1349.5,415.5C 1349.17,415.833 1348.83,416.167 1348.5,416.5C 1346.8,414.959 1344.96,413.625 1343,412.5C 1337.52,415.24 1332.19,418.24 1327,421.5C 1326.33,422.833 1326.33,424.167 1327,425.5C 1330.37,430.703 1333.53,436.036 1336.5,441.5C 1337.36,442.583 1338.36,442.749 1339.5,442C 1344.17,439 1348.83,436 1353.5,433C 1354.14,430.143 1354.48,427.309 1354.5,424.5C 1359.15,431.797 1363.82,439.13 1368.5,446.5C 1365.95,447.539 1363.95,446.705 1362.5,444C 1361.5,443.333 1360.5,443.333 1359.5,444C 1346.47,451.042 1333.97,458.875 1322,467.5C 1322.2,470.235 1322.03,472.901 1321.5,475.5C 1316.85,468.203 1312.18,460.87 1307.5,453.5C 1309.56,452.239 1311.23,452.739 1312.5,455C 1314.17,455.667 1315.83,455.667 1317.5,455C 1322.83,451.667 1328.17,448.333 1333.5,445C 1329.72,438.069 1325.39,431.569 1320.5,425.5C 1314.53,428.969 1308.7,432.636 1303,436.5C 1303.15,439.174 1303.65,441.84 1304.5,444.5C 1303.32,444.719 1302.32,444.386 1301.5,443.5C 1297.79,435.918 1293.46,428.751 1288.5,422C 1289.03,421.308 1289.69,420.808 1290.5,420.5C 1291.76,422.381 1293.43,423.714 1295.5,424.5C 1309.82,418.255 1323.32,410.589 1336,401.5C 1336.04,398.78 1335.54,396.114 1334.5,393.5 Z"/></g>
<g><path style="opacity:1" fill="#c7b686" d="M 188.5,395.5 C 189.497,395.47 190.164,395.97 190.5,397C 188.749,400.58 189.415,403.58 192.5,406C 204.481,413.571 216.648,420.737 229,427.5C 231.522,426.982 233.522,425.649 235,423.5C 235.5,423.833 236,424.167 236.5,424.5C 231.251,431.996 226.251,439.663 221.5,447.5C 221.218,444.943 221.051,442.277 221,439.5C 209.098,430.463 196.598,422.296 183.5,415C 182.5,414.333 181.5,414.333 180.5,415C 179.315,416.353 177.981,417.52 176.5,418.5C 176.167,418 175.833,417.5 175.5,417C 180.07,409.94 184.404,402.774 188.5,395.5 Z"/></g>
<g><path style="opacity:1" fill="#fbc303" d="M 1065.5,571.5 C 1043.79,580.184 1023.46,591.184 1004.5,604.5C 990.901,606.42 977.235,606.92 963.5,606C 929.112,597.653 894.778,589.153 860.5,580.5C 859.4,579.442 858.066,578.608 856.5,578C 842.587,574.717 828.587,571.884 814.5,569.5C 806.679,568.421 799.013,566.921 791.5,565C 793.948,560.885 796.781,557.052 800,553.5C 800.667,552.833 800.667,552.167 800,551.5C 785.138,566.924 771.972,583.591 760.5,601.5C 753.377,602.426 746.377,602.092 739.5,600.5C 761.484,563.202 784.984,526.869 810,491.5C 812.354,487.797 813.854,483.797 814.5,479.5C 822.958,471.28 829.458,461.613 834,450.5C 838.163,437.829 841.996,425.162 845.5,412.5C 848.787,408.041 852.287,403.708 856,399.5C 874.025,382.474 891.692,365.141 909,347.5C 918.769,335.964 925.936,322.964 930.5,308.5C 965.072,332.714 976.238,365.048 964,405.5C 954.166,429.343 939,449.177 918.5,465C 901.621,476.859 883.955,487.526 865.5,497C 842.561,510.156 822.228,526.656 804.5,546.5C 824.72,551.312 845.054,555.812 865.5,560C 887.505,565.668 909.505,571.335 931.5,577C 944.377,579.759 957.377,581.092 970.5,581C 976.729,577.399 981.229,572.233 984,565.5C 990.974,544.94 997.641,524.273 1004,503.5C 1007.67,496.167 1011.33,488.833 1015,481.5C 1024.77,464.726 1038.61,452.56 1056.5,445C 1087.39,436.077 1115.39,441.577 1140.5,461.5C 1134.69,465.474 1129.03,469.64 1123.5,474C 1111.38,487.052 1101.88,501.885 1095,518.5C 1089.61,530.953 1083.94,543.286 1078,555.5C 1073.97,561.02 1069.8,566.353 1065.5,571.5 Z"/></g>
<g><path style="opacity:1" fill="#fbc303" d="M 676.5,414.5 C 677.973,437.287 681.973,459.621 688.5,481.5C 687.054,499.005 681.887,515.338 673,530.5C 655.276,558.051 637.776,585.717 620.5,613.5C 618.926,613.937 617.759,614.937 617,616.5C 613.919,622.331 610.585,627.998 607,633.5C 603.679,638.474 601.179,643.807 599.5,649.5C 594.593,656.972 589.927,664.639 585.5,672.5C 582.491,668.164 579.157,664.164 575.5,660.5C 585.546,679.865 597.546,697.865 611.5,714.5C 608.558,720.718 605.891,727.051 603.5,733.5C 575.342,702.186 548.842,669.52 524,635.5C 520.258,631.253 516.092,627.586 511.5,624.5C 508.929,619.695 506.096,615.028 503,610.5C 490.135,595.82 474.968,584.153 457.5,575.5C 455.225,571.385 452.725,567.385 450,563.5C 438.782,539.397 426.782,515.731 414,492.5C 406.254,480.086 396.421,469.586 384.5,461C 412.492,439.4 442.492,436.067 474.5,451C 501.499,468.129 519.999,491.962 530,522.5C 537.202,550.049 543.869,577.716 550,605.5C 555.361,622.885 562.861,639.218 572.5,654.5C 583,636.167 593.5,617.833 604,599.5C 622.347,573.491 638.68,546.157 653,517.5C 656.197,511.111 656.197,504.777 653,498.5C 649.869,494.367 646.369,490.534 642.5,487C 625.325,475.246 608.325,463.246 591.5,451C 586.333,445.833 581.167,440.667 576,435.5C 559.086,416.76 551.753,394.76 554,369.5C 558.998,343.499 572.498,323.166 594.5,308.5C 598.155,323.811 604.989,337.477 615,349.5C 631.616,366.294 648.616,382.627 666,398.5C 669.759,403.691 673.259,409.024 676.5,414.5 Z"/></g>
<g><path style="opacity:1" fill="#c7b686" d="M 1369.5,454.5 C 1371.02,454.511 1372.18,455.177 1373,456.5C 1375.73,462.954 1378.73,469.288 1382,475.5C 1381.78,479.225 1380.61,479.225 1378.5,475.5C 1376.58,474.359 1374.58,474.192 1372.5,475C 1360.01,481.078 1347.68,487.411 1335.5,494C 1334.21,496.466 1334.21,498.966 1335.5,501.5C 1334.68,502.386 1333.68,502.719 1332.5,502.5C 1329.53,494.383 1325.86,486.549 1321.5,479C 1322,478.5 1322.5,478 1323,477.5C 1324.53,478.729 1325.7,480.229 1326.5,482C 1327.83,482.667 1329.17,482.667 1330.5,482C 1342.96,476.272 1355.29,470.272 1367.5,464C 1370.73,461.448 1371.4,458.281 1369.5,454.5 Z"/></g>
<g><path style="opacity:1" fill="#0b9844" d="M 814.5,479.5 C 813.854,483.797 812.354,487.797 810,491.5C 784.984,526.869 761.484,563.202 739.5,600.5C 734.167,600.5 728.833,600.5 723.5,600.5C 714.5,599.833 705.5,599.167 696.5,598.5C 699.741,593.024 703.241,587.691 707,582.5C 724.793,561.706 743.626,541.873 763.5,523C 781.255,509.414 798.255,494.914 814.5,479.5 Z"/></g>
<g><path style="opacity:1" fill="#0b9844" d="M 688.5,481.5 C 693.393,495.304 698.893,508.97 705,522.5C 705.992,533.538 703.658,543.871 698,553.5C 687.708,569.916 677.541,586.416 667.5,603C 651.636,605.805 635.969,609.305 620.5,613.5C 637.776,585.717 655.276,558.051 673,530.5C 681.887,515.338 687.054,499.005 688.5,481.5 Z"/></g>
<g><path style="opacity:1" fill="#c8b687" d="M 1391.5,496.5 C 1392.75,496.577 1393.58,497.244 1394,498.5C 1396.75,507.095 1400.09,515.428 1404,523.5C 1405.84,528.86 1405.84,534.193 1404,539.5C 1397.33,546.167 1390.67,546.167 1384,539.5C 1384.34,554.732 1377.17,560.565 1362.5,557C 1357.38,553.603 1353.55,549.103 1351,543.5C 1347.83,534.667 1344.67,525.833 1341.5,517C 1341.83,516.5 1342.17,516 1342.5,515.5C 1344.33,519.518 1347.33,521.018 1351.5,520C 1364.92,515.417 1378.09,510.25 1391,504.5C 1391.5,501.854 1391.66,499.187 1391.5,496.5 Z"/></g>
<g><path style="opacity:1" fill="#fcfbfa" d="M 1394.5,516.5 C 1396.91,516.137 1398.41,517.137 1399,519.5C 1400.39,526.783 1397.56,531.617 1390.5,534C 1386.06,535.378 1382.56,534.212 1380,530.5C 1378.97,528.156 1378.31,525.823 1378,523.5C 1383.62,521.243 1389.12,518.91 1394.5,516.5 Z"/></g>
<g><path style="opacity:1" fill="#fcfcfa" d="M 1370.5,525.5 C 1374.42,524.93 1376.59,526.597 1377,530.5C 1377.94,539.109 1374.1,544.275 1365.5,546C 1355.84,548 1351.67,544.167 1353,534.5C 1358.66,531.013 1364.5,528.013 1370.5,525.5 Z"/></g>
<g><path style="opacity:1" fill="#c8b787" d="M 170.5,423.5 C 172.347,424.563 172.681,426.229 171.5,428.5C 171.39,430.374 172.056,431.874 173.5,433C 185.5,439.333 197.5,445.667 209.5,452C 210.944,452.781 212.277,452.614 213.5,451.5C 214.083,449.998 214.916,448.665 216,447.5C 220.865,452.7 226.032,457.533 231.5,462C 230.874,462.75 230.374,463.584 230,464.5C 226.533,462.848 223.033,461.348 219.5,460C 217.559,459.257 215.726,459.424 214,460.5C 201.988,482.192 190.822,504.192 180.5,526.5C 179.779,524.314 179.113,522.147 178.5,520C 173.136,519.171 167.802,519.337 162.5,520.5C 160.467,524.768 158.967,529.101 158,533.5C 160.869,536.704 164.035,539.537 167.5,542C 171.18,542.682 173.68,541.182 175,537.5C 175.692,538.025 176.192,538.692 176.5,539.5C 170.377,552.413 165.377,565.747 161.5,579.5C 160.971,576.743 159.971,574.243 158.5,572C 152.333,570.167 146.167,568.333 140,566.5C 135.823,573.532 133.323,581.198 132.5,589.5C 138.716,590.929 144.882,592.596 151,594.5C 154.233,593.741 156.4,591.741 157.5,588.5C 158.614,589.723 158.781,591.056 158,592.5C 155.65,600.241 153.15,607.908 150.5,615.5C 150.002,612.407 149.002,609.574 147.5,607C 133.907,602.024 120.074,597.858 106,594.5C 104.833,594.833 103.667,595.167 102.5,595.5C 100.287,600.579 99.1204,600.579 99,595.5C 100.821,588.201 103.321,581.201 106.5,574.5C 107.029,577.257 108.029,579.757 109.5,582C 114.601,583.734 119.768,585.234 125,586.5C 126.326,586.245 127.326,585.578 128,584.5C 129.707,578.003 131.874,571.67 134.5,565.5C 128.572,562.809 122.405,560.809 116,559.5C 113.497,561.187 110.997,562.853 108.5,564.5C 111.032,556.235 113.365,547.902 115.5,539.5C 116.5,539.5 117.5,539.5 118.5,539.5C 118.232,542.119 118.565,544.619 119.5,547C 134.218,552.468 149.218,556.468 164.5,559C 166.783,555.823 167.617,552.323 167,548.5C 153.958,535.955 140.791,523.622 127.5,511.5C 128.601,509.358 129.601,507.192 130.5,505C 148.819,505.724 167.152,506.058 185.5,506C 192.704,500.156 192.037,495.49 183.5,492C 172.657,486.078 161.657,480.411 150.5,475C 147.358,475.088 144.858,476.588 143,479.5C 142.5,479 142,478.5 141.5,478C 145.722,470.383 150.055,462.883 154.5,455.5C 155.446,457.075 155.446,458.742 154.5,460.5C 154.529,462.029 155.196,463.196 156.5,464C 169.226,471.03 182.226,477.53 195.5,483.5C 197.088,482.99 198.255,481.99 199,480.5C 201.5,475.5 204,470.5 206.5,465.5C 193.856,457.841 180.856,450.675 167.5,444C 166.167,443.333 164.833,443.333 163.5,444C 162.315,445.353 160.981,446.52 159.5,447.5C 159.167,447.167 158.833,446.833 158.5,446.5C 162.768,438.964 166.768,431.297 170.5,423.5 Z"/></g>
<g><path style="opacity:1" fill="#fbfaf7" d="M 139.5,516.5 C 145.877,517.044 152.21,518.044 158.5,519.5C 156.829,522.842 155.162,526.176 153.5,529.5C 148.112,525.773 143.446,521.44 139.5,516.5 Z"/></g>
<g><path style="opacity:1" fill="#0e9844" d="M 814.5,569.5 C 819.406,572.57 823.573,576.57 827,581.5C 834.87,592.072 842.37,602.905 849.5,614C 820.917,610.06 792.251,606.394 763.5,603C 762.263,602.768 761.263,602.268 760.5,601.5C 771.972,583.591 785.138,566.924 800,551.5C 800.667,552.167 800.667,552.833 800,553.5C 796.781,557.052 793.948,560.885 791.5,565C 799.013,566.921 806.679,568.421 814.5,569.5 Z"/></g>
<g><path style="opacity:1" fill="#c8b788" d="M 1358.5,561.5 C 1359.68,561.281 1360.68,561.614 1361.5,562.5C 1362.25,564.753 1363.59,566.587 1365.5,568C 1383.65,570.389 1401.82,571.889 1420,572.5C 1420.99,575.126 1421.33,577.793 1421,580.5C 1406.31,590.679 1391.98,601.346 1378,612.5C 1377.81,614.9 1377.31,617.234 1376.5,619.5C 1373.55,611.487 1370.88,603.32 1368.5,595C 1368.83,594.5 1369.17,594 1369.5,593.5C 1370.79,595.097 1372.29,596.43 1374,597.5C 1378.5,595.584 1382.5,592.917 1386,589.5C 1386.29,584.026 1385.12,578.859 1382.5,574C 1377.83,573.333 1373.17,573.333 1368.5,574C 1366.72,576.135 1366.05,578.635 1366.5,581.5C 1365.5,581.5 1364.5,581.5 1363.5,581.5C 1362.76,574.535 1361.09,567.868 1358.5,561.5 Z"/></g>
<g><path style="opacity:1" fill="#faf9f5" d="M 1388.5,574.5 C 1394.68,574.047 1400.68,574.547 1406.5,576C 1401.56,579.963 1396.23,583.13 1390.5,585.5C 1389.99,581.803 1389.33,578.136 1388.5,574.5 Z"/></g>
<g><path style="opacity:1" fill="#0d9844" d="M 860.5,580.5 C 894.778,589.153 929.112,597.653 963.5,606C 977.235,606.92 990.901,606.42 1004.5,604.5C 993.81,612.01 983.81,620.51 974.5,630C 963.285,636.624 951.285,638.291 938.5,635C 920.208,630.51 901.875,626.177 883.5,622C 876.005,608.005 868.005,594.338 859.5,581C 859.728,580.601 860.062,580.435 860.5,580.5 Z"/></g>
<g><path style="opacity:1" fill="#86ba27" d="M 696.5,598.5 C 705.5,599.167 714.5,599.833 723.5,600.5C 714.143,600.832 704.81,600.498 695.5,599.5C 695.624,598.893 695.957,598.56 696.5,598.5 Z"/></g>
<g><path style="opacity:1" fill="#fefefd" d="M 242.5,605.5 C 251.42,617.762 260.754,629.762 270.5,641.5C 235.833,799.93 266.666,943.93 363,1073.5C 382.897,1098.9 405.064,1122.23 429.5,1143.5C 429.168,1159.55 429.835,1175.55 431.5,1191.5C 431.631,1192.24 431.464,1192.91 431,1193.5C 303.487,1091.84 233.153,959.17 220,795.5C 216.067,730.623 223.567,667.29 242.5,605.5 Z"/></g>
<g><path style="opacity:1" fill="#fdfefd" d="M 1282.5,608.5 C 1284.48,609.848 1285.65,611.848 1286,614.5C 1326.68,770.037 1305.35,916.37 1222,1053.5C 1187.18,1108.41 1143.68,1155.41 1091.5,1194.5C 1091.5,1178.83 1091.5,1163.17 1091.5,1147.5C 1215.81,1036.46 1274.65,897.131 1268,729.5C 1266.04,702.223 1262.21,675.223 1256.5,648.5C 1265.65,635.536 1274.32,622.203 1282.5,608.5 Z"/></g>
<g><path style="opacity:1" fill="#c8b787" d="M 1402.5,612.5 C 1421.46,611.281 1433.3,619.947 1438,638.5C 1438.83,645.146 1439.33,651.813 1439.5,658.5C 1434.46,659.259 1429.46,659.259 1424.5,658.5C 1426.92,656.733 1429.58,655.233 1432.5,654C 1437.44,644.644 1436.11,636.311 1428.5,629C 1415.89,624.788 1403.89,626.122 1392.5,633C 1383.39,641.188 1382.06,650.522 1388.5,661C 1392.23,663.195 1395.9,665.362 1399.5,667.5C 1393.98,668.458 1388.98,667.125 1384.5,663.5C 1379.46,652.584 1378.29,641.251 1381,629.5C 1385.66,620.67 1392.83,615.003 1402.5,612.5 Z"/></g>
<g><path style="opacity:1" fill="#089844" d="M 725.5,624.5 C 716.986,640.195 708.986,656.195 701.5,672.5C 685.853,674.646 670.186,676.646 654.5,678.5C 661.468,661.056 669.801,643.889 679.5,627C 694.748,624.794 710.082,623.961 725.5,624.5 Z"/></g>
<g><path style="opacity:1" fill="#fac303" d="M 725.5,624.5 C 732.026,624.697 738.359,625.364 744.5,626.5C 736.666,640.835 729.333,655.501 722.5,670.5C 747.837,671.471 773.17,671.971 798.5,672C 790.199,657.224 781.533,642.724 772.5,628.5C 772.56,627.957 772.893,627.624 773.5,627.5C 784.932,628.732 796.265,630.399 807.5,632.5C 813.821,646.478 820.155,660.478 826.5,674.5C 843.41,677.535 860.41,680.202 877.5,682.5C 878.531,683.249 879.698,683.915 881,684.5C 882.609,690.491 884.109,696.491 885.5,702.5C 868.56,698.937 851.56,696.603 834.5,695.5C 843.638,719.079 851.471,743.079 858,767.5C 869.751,754.922 880.917,741.922 891.5,728.5C 894.279,739.715 896.946,751.049 899.5,762.5C 887.306,773.53 875.306,784.697 863.5,796C 867.311,813.366 870.311,830.866 872.5,848.5C 868.072,851.891 863.406,855.058 858.5,858C 857.423,858.47 856.423,858.303 855.5,857.5C 854.654,846.42 853.154,835.42 851,824.5C 850.165,818.973 848.831,813.64 847,808.5C 827.339,824.495 806.839,839.328 785.5,853C 800.928,860.381 816.595,867.214 832.5,873.5C 823.018,879.959 813.018,885.626 802.5,890.5C 788.563,883.074 774.73,875.407 761,867.5C 745.168,875.997 729.335,884.331 713.5,892.5C 707.562,888.894 702.229,884.561 697.5,879.5C 713.397,872.769 728.731,864.935 743.5,856C 721.873,842.376 701.373,827.209 682,810.5C 679.242,827.034 677.742,843.701 677.5,860.5C 676.211,861.501 674.878,861.334 673.5,860C 665.588,853.253 658.254,846.086 651.5,838.5C 654.541,822.802 657.374,807.135 660,791.5C 646.994,779.661 634.494,767.327 622.5,754.5C 623.864,747.736 626.197,741.402 629.5,735.5C 640.479,748.479 652.479,760.479 665.5,771.5C 672.511,747.134 680.511,723.134 689.5,699.5C 672.663,702.401 655.997,706.067 639.5,710.5C 643.751,699.38 648.751,688.713 654.5,678.5C 670.186,676.646 685.853,674.646 701.5,672.5C 708.986,656.195 716.986,640.195 725.5,624.5 Z"/></g>
<g><path style="opacity:1" fill="#0b9844" d="M 511.5,624.5 C 516.092,627.586 520.258,631.253 524,635.5C 548.842,669.52 575.342,702.186 603.5,733.5C 597.98,747.226 593.147,761.226 589,775.5C 569.212,748.276 552.212,719.276 538,688.5C 529.835,666.826 521.002,645.492 511.5,624.5 Z"/></g>
<g><path style="opacity:1" fill="#099844" d="M 744.5,626.5 C 753.96,626.155 763.293,626.821 772.5,628.5C 781.533,642.724 790.199,657.224 798.5,672C 773.17,671.971 747.837,671.471 722.5,670.5C 729.333,655.501 736.666,640.835 744.5,626.5 Z"/></g>
<g><path style="opacity:1" fill="#0c9844" d="M 877.5,682.5 C 860.41,680.202 843.41,677.535 826.5,674.5C 820.155,660.478 813.821,646.478 807.5,632.5C 826.108,633.704 844.774,636.204 863.5,640C 870.398,652.693 875.732,666.026 879.5,680C 879.316,681.376 878.649,682.209 877.5,682.5 Z"/></g>
<g><path style="opacity:1" fill="#0c9844" d="M 611.5,714.5 C 597.546,697.865 585.546,679.865 575.5,660.5C 579.157,664.164 582.491,668.164 585.5,672.5C 589.927,664.639 594.593,656.972 599.5,649.5C 615.835,641.998 632.835,636.832 650.5,634C 636.012,660.141 623.012,686.974 611.5,714.5 Z"/></g>
<g><path style="opacity:1" fill="#c9b88a" d="M 74.5,634.5 C 83.9257,640.705 86.0923,649.039 81,659.5C 76.8189,663.808 73.3189,663.475 70.5,658.5C 77.5225,654.96 80.0225,649.294 78,641.5C 76.1207,639.473 74.954,637.14 74.5,634.5 Z"/></g>
<g><path style="opacity:1" fill="#039845" d="M 270.5,641.5 C 278.902,651.407 287.902,660.907 297.5,670C 329.067,700.288 365.734,722.121 407.5,735.5C 400.683,736.705 394.016,738.538 387.5,741C 367.119,752.524 346.452,763.524 325.5,774C 310.996,779.355 295.996,781.689 280.5,781C 288.359,806.747 304.025,826.081 327.5,839C 346.877,846.914 366.543,847.58 386.5,841C 396.073,837.214 405.407,832.88 414.5,828C 432.553,814.28 450.887,800.947 469.5,788C 478.33,782.189 486.997,782.189 495.5,788C 500.714,793.514 506.214,798.681 512,803.5C 528.572,822.982 544.905,842.649 561,862.5C 575.033,878.03 589.199,893.363 603.5,908.5C 603.5,908.833 603.5,909.167 603.5,909.5C 580.054,914.174 556.387,915.674 532.5,914C 514.852,912.146 497.186,910.479 479.5,909C 444.072,905.558 412.072,914.224 383.5,935C 355.512,960.789 348.179,991.622 361.5,1027.5C 372.284,1019.28 384.284,1013.44 397.5,1010C 429.184,1004.5 460.851,998.997 492.5,993.5C 482.427,1003.07 473.26,1013.4 465,1024.5C 441.56,1060.57 429.727,1100.24 429.5,1143.5C 405.064,1122.23 382.897,1098.9 363,1073.5C 266.666,943.93 235.833,799.93 270.5,641.5 Z"/></g>
<g><path style="opacity:1" fill="#0e9844" d="M 1045.5,723.5 C 1041.82,723.665 1038.15,723.499 1034.5,723C 992.986,709.955 950.986,698.788 908.5,689.5C 907.313,688.466 906.48,687.133 906,685.5C 902.776,672.257 899.11,659.257 895,646.5C 921.546,655.519 947.379,666.353 972.5,679C 997.23,693.357 1021.56,708.19 1045.5,723.5 Z"/></g>
<g><path style="opacity:1" fill="#039845" d="M 1256.5,648.5 C 1262.21,675.223 1266.04,702.223 1268,729.5C 1274.65,897.131 1215.81,1036.46 1091.5,1147.5C 1089.45,1130.18 1086.61,1112.85 1083,1095.5C 1074.72,1056.95 1058.89,1021.95 1035.5,990.5C 1041.77,992.758 1048.11,994.924 1054.5,997C 1072.79,999.625 1091.13,1001.96 1109.5,1004C 1130,1006.33 1148,1014.16 1163.5,1027.5C 1174.9,998.869 1172.4,971.536 1156,945.5C 1143.48,929.67 1127.31,919.503 1107.5,915C 1099.85,913.538 1092.19,912.204 1084.5,911C 1061.83,911.108 1039.17,911.108 1016.5,911C 1003.63,910.453 996.131,903.953 994,891.5C 989.157,862.373 986.491,833.04 986,803.5C 984.299,780.53 981.799,757.696 978.5,735C 993.236,740.703 1007.24,748.037 1020.5,757C 1039.72,771.881 1058.05,787.881 1075.5,805C 1096.47,822.817 1120.47,834.817 1147.5,841C 1196.24,847.64 1228.57,827.806 1244.5,781.5C 1229.22,781.179 1214.55,778.012 1200.5,772C 1176.88,760.526 1153.55,748.526 1130.5,736C 1126.26,734.197 1121.92,732.697 1117.5,731.5C 1128.71,729.088 1140.05,726.588 1151.5,724C 1177.36,716.241 1200.36,703.575 1220.5,686C 1233.1,673.908 1245.1,661.408 1256.5,648.5 Z"/></g>
<g><path style="opacity:1" fill="#c8b787" d="M 92.5,621.5 C 93.5,621.5 94.5,621.5 95.5,621.5C 95.2436,623.792 95.5769,625.959 96.5,628C 111.924,632.35 127.591,634.517 143.5,634.5C 144.309,632.929 144.643,631.262 144.5,629.5C 145.5,629.5 146.5,629.5 147.5,629.5C 146.588,638.639 144.921,647.639 142.5,656.5C 141.971,653.743 140.971,651.243 139.5,649C 128.295,646.243 116.961,644.576 105.5,644C 113.833,653 122.167,662 130.5,671C 135.829,672.822 138.496,670.989 138.5,665.5C 139.5,665.5 140.5,665.5 141.5,665.5C 140.113,674.542 138.446,683.542 136.5,692.5C 135.971,689.743 134.971,687.243 133.5,685C 129.943,683.592 126.276,682.592 122.5,682C 111.74,680.707 101.074,678.873 90.5,676.5C 86.6398,677.209 84.9732,679.542 85.5,683.5C 84.5,683.5 83.5,683.5 82.5,683.5C 84.2661,674.903 85.5994,666.237 86.5,657.5C 87.5,657.5 88.5,657.5 89.5,657.5C 89.2436,659.792 89.5769,661.959 90.5,664C 101.824,666.111 113.157,667.777 124.5,669C 116.197,659.696 107.531,650.696 98.5,642C 94.1556,640.524 91.8222,642.024 91.5,646.5C 90.325,646.719 89.325,646.386 88.5,645.5C 90.2977,637.583 91.6311,629.583 92.5,621.5 Z"/></g>
<g><path style="opacity:1" fill="#87b028" d="M 575.5,660.5 C 573.915,659.998 573.415,658.998 574,657.5C 575.039,658.244 575.539,659.244 575.5,660.5 Z"/></g>
<g><path style="opacity:1" fill="#039845" d="M 737.5,691.5 C 761.525,691.121 785.525,691.621 809.5,693C 823.628,721.548 834.295,751.381 841.5,782.5C 837.753,787.753 833.42,792.586 828.5,797C 808.393,813.948 787.059,829.115 764.5,842.5C 753.214,836.857 742.214,830.69 731.5,824C 716.049,812.884 700.883,801.384 686,789.5C 686.441,777.288 688.441,765.288 692,753.5C 697.874,733.878 704.54,714.545 712,695.5C 720.551,693.827 729.051,692.494 737.5,691.5 Z"/></g>
<g><path style="opacity:1" fill="#0a9844" d="M 885.5,702.5 C 888.125,711.003 890.125,719.67 891.5,728.5C 880.917,741.922 869.751,754.922 858,767.5C 851.471,743.079 843.638,719.079 834.5,695.5C 851.56,696.603 868.56,698.937 885.5,702.5 Z"/></g>
<g><path style="opacity:1" fill="#0c9844" d="M 629.5,735.5 C 632.017,726.805 635.351,718.471 639.5,710.5C 655.997,706.067 672.663,702.401 689.5,699.5C 680.511,723.134 672.511,747.134 665.5,771.5C 652.479,760.479 640.479,748.479 629.5,735.5 Z"/></g>
<g><path style="opacity:1" fill="#0d9844" d="M 913.5,709.5 C 934.456,715.311 954.789,722.811 974.5,732C 968.889,731.133 963.389,729.633 958,727.5C 958.828,736.798 959.661,746.131 960.5,755.5C 950.813,770.189 940.146,784.189 928.5,797.5C 924.189,768.469 918.856,739.636 912.5,711C 912.57,710.235 912.903,709.735 913.5,709.5 Z"/></g>
<g><path style="opacity:1" fill="#fbc303" d="M 908.5,689.5 C 950.986,698.788 992.986,709.955 1034.5,723C 1038.15,723.499 1041.82,723.665 1045.5,723.5C 1054.35,727.839 1063.69,730.672 1073.5,732C 1088.18,732.685 1102.85,732.518 1117.5,731.5C 1121.92,732.697 1126.26,734.197 1130.5,736C 1153.55,748.526 1176.88,760.526 1200.5,772C 1214.55,778.012 1229.22,781.179 1244.5,781.5C 1228.57,827.806 1196.24,847.64 1147.5,841C 1120.47,834.817 1096.47,822.817 1075.5,805C 1058.05,787.881 1039.72,771.881 1020.5,757C 1007.24,748.037 993.236,740.703 978.5,735C 981.799,757.696 984.299,780.53 986,803.5C 986.491,833.04 989.157,862.373 994,891.5C 996.131,903.953 1003.63,910.453 1016.5,911C 1039.17,911.108 1061.83,911.108 1084.5,911C 1092.19,912.204 1099.85,913.538 1107.5,915C 1127.31,919.503 1143.48,929.67 1156,945.5C 1172.4,971.536 1174.9,998.869 1163.5,1027.5C 1148,1014.16 1130,1006.33 1109.5,1004C 1091.13,1001.96 1072.79,999.625 1054.5,997C 1048.11,994.924 1041.77,992.758 1035.5,990.5C 1020.8,972.129 1004.13,955.796 985.5,941.5C 978.181,928.044 973.348,913.711 971,898.5C 969.165,864.475 966.998,830.475 964.5,796.5C 965.043,795.258 965.377,793.925 965.5,792.5C 964.092,779.988 962.426,767.654 960.5,755.5C 959.661,746.131 958.828,736.798 958,727.5C 963.389,729.633 968.889,731.133 974.5,732C 954.789,722.811 934.456,715.311 913.5,709.5C 912.609,708.739 911.942,707.739 911.5,706.5C 910.479,701.081 909.145,695.748 907.5,690.5C 907.624,689.893 907.957,689.56 908.5,689.5 Z"/></g>
<g><path style="opacity:1" fill="#fac303" d="M 407.5,735.5 C 429.43,741.492 451.763,744.492 474.5,744.5C 489.925,751.312 503.425,760.979 515,773.5C 535.668,798.998 556.501,824.331 577.5,849.5C 586.079,861.415 595.745,872.415 606.5,882.5C 612.451,888.787 618.451,895.12 624.5,901.5C 619.971,903.565 615.305,905.232 610.5,906.5C 608.228,907.319 605.894,907.985 603.5,908.5C 589.199,893.363 575.033,878.03 561,862.5C 544.905,842.649 528.572,822.982 512,803.5C 506.214,798.681 500.714,793.514 495.5,788C 486.997,782.189 478.33,782.189 469.5,788C 450.887,800.947 432.553,814.28 414.5,828C 405.407,832.88 396.073,837.214 386.5,841C 366.543,847.58 346.877,846.914 327.5,839C 304.025,826.081 288.359,806.747 280.5,781C 295.996,781.689 310.996,779.355 325.5,774C 346.452,763.524 367.119,752.524 387.5,741C 394.016,738.538 400.683,736.705 407.5,735.5 Z"/></g>
<g><path style="opacity:1" fill="#099844" d="M 577.5,849.5 C 556.501,824.331 535.668,798.998 515,773.5C 503.425,760.979 489.925,751.312 474.5,744.5C 491.15,743.383 507.817,742.883 524.5,743C 533.778,747.601 541.945,753.768 549,761.5C 560.137,775.637 571.637,789.47 583.5,803C 581.223,818.602 579.223,834.102 577.5,849.5 Z"/></g>
<g><path style="opacity:1" fill="#c8b687" d="M 81.5,691.5 C 82.5,691.5 83.5,691.5 84.5,691.5C 84.1043,694.044 84.771,696.211 86.5,698C 101.778,699.997 117.111,700.663 132.5,700C 133.594,698.22 134.594,696.386 135.5,694.5C 136.499,703.192 136.166,711.859 134.5,720.5C 133.402,718.368 132.402,716.202 131.5,714C 119.884,712.314 108.217,711.648 96.5,712C 105.203,720.371 114.203,728.371 123.5,736C 128.974,737.923 132.307,736.089 133.5,730.5C 133.833,731.833 134.167,733.167 134.5,734.5C 133.842,747.155 133.675,759.822 134,772.5C 132.939,775.562 131.106,778.062 128.5,780C 121.449,783.72 114.949,788.22 109,793.5C 108.517,794.448 108.351,795.448 108.5,796.5C 115.874,796.616 123.208,796.116 130.5,795C 131.574,792.544 132.574,790.044 133.5,787.5C 135.166,796.81 135.499,806.143 134.5,815.5C 133.961,812.789 132.628,810.623 130.5,809C 115.822,808.556 101.155,808.889 86.5,810C 85.5838,810.374 84.7504,810.874 84,811.5C 83.5045,813.473 83.3379,815.473 83.5,817.5C 82.5,817.5 81.5,817.5 80.5,817.5C 79.8771,808.473 79.8771,799.473 80.5,790.5C 81.9063,792.566 83.2396,794.732 84.5,797C 91.1892,797.609 97.8558,797.443 104.5,796.5C 105.16,791.653 103.493,787.819 99.5,785C 91.989,782.283 85.1557,778.45 79,773.5C 75.8897,764.198 78.723,762.032 87.5,767C 86.3977,769.401 86.231,771.901 87,774.5C 92.6667,777.833 98.3333,781.167 104,784.5C 104.707,782.919 105.54,781.419 106.5,780C 114.089,774.622 121.589,769.122 129,763.5C 131.162,758.823 130.996,754.323 128.5,750C 112.88,747.755 97.2134,747.255 81.5,748.5C 80.9851,750.225 80.3184,751.892 79.5,753.5C 78.2528,744.784 78.5862,736.117 80.5,727.5C 81.8732,729.49 82.8732,731.657 83.5,734C 95.1324,735.488 106.799,736.155 118.5,736C 108.833,727.667 99.1667,719.333 89.5,711C 87.8333,710.333 86.1667,710.333 84.5,711C 83.4063,712.78 82.4063,714.614 81.5,716.5C 80.8801,708.196 80.8801,699.862 81.5,691.5 Z"/></g>
<g><path style="opacity:1" fill="#c8b687" d="M 1439.5,667.5 C 1441.16,668.949 1442,670.949 1442,673.5C 1442.31,679.186 1442.81,684.853 1443.5,690.5C 1443.17,691.5 1442.83,692.5 1442.5,693.5C 1441.38,692.086 1440.38,690.586 1439.5,689C 1427.77,688.718 1416.1,689.551 1404.5,691.5C 1414.33,698.249 1424.33,704.749 1434.5,711C 1440.33,712.666 1443,710.499 1442.5,704.5C 1443.5,704.5 1444.5,704.5 1445.5,704.5C 1445.33,713.249 1445.99,721.916 1447.5,730.5C 1446.5,730.5 1445.5,730.5 1444.5,730.5C 1444.64,728.738 1444.31,727.071 1443.5,725.5C 1428.11,724.672 1412.78,725.505 1397.5,728C 1395.59,728.408 1394.59,729.575 1394.5,731.5C 1394.94,734.879 1395.94,738.045 1397.5,741C 1413.64,748.906 1430.31,755.406 1447.5,760.5C 1447.5,763.5 1447.5,766.5 1447.5,769.5C 1430.42,773.694 1413.75,779.194 1397.5,786C 1394.28,787.99 1393.78,790.49 1396,793.5C 1403.39,799.554 1410.05,806.221 1416,813.5C 1419,803.842 1425.5,800.009 1435.5,802C 1442.49,805.972 1445.49,811.972 1444.5,820C 1443.9,829.876 1442.9,839.709 1441.5,849.5C 1440.4,847.368 1439.4,845.202 1438.5,843C 1423,840.045 1407.33,838.712 1391.5,839C 1391.01,841.176 1390.01,843.009 1388.5,844.5C 1388.2,835.885 1388.2,827.219 1388.5,818.5C 1389.83,818.5 1391.17,818.5 1392.5,818.5C 1392.24,820.792 1392.58,822.959 1393.5,825C 1400.38,826.735 1407.38,827.569 1414.5,827.5C 1414.65,826.448 1414.48,825.448 1414,824.5C 1406.92,818.148 1399.92,811.814 1393,805.5C 1391.56,792.574 1391.06,779.574 1391.5,766.5C 1392.5,766.5 1393.5,766.5 1394.5,766.5C 1393.83,769.59 1395,771.257 1398,771.5C 1410.17,767.666 1422.34,763.832 1434.5,760C 1422.6,755.551 1410.6,751.384 1398.5,747.5C 1397.56,747.608 1396.72,747.941 1396,748.5C 1395.17,750.5 1394.33,752.5 1393.5,754.5C 1392.54,739.445 1391.21,724.445 1389.5,709.5C 1390.5,709.5 1391.5,709.5 1392.5,709.5C 1392.3,713.793 1394.3,715.793 1398.5,715.5C 1409.19,714.543 1419.86,713.376 1430.5,712C 1419.83,705.333 1409.17,698.667 1398.5,692C 1392.67,691.004 1390.33,693.504 1391.5,699.5C 1390.5,699.5 1389.5,699.5 1388.5,699.5C 1388.16,692.142 1387.5,684.809 1386.5,677.5C 1386.83,675.833 1387.17,674.167 1387.5,672.5C 1388.43,677.277 1391.27,679.611 1396,679.5C 1410.28,678.461 1424.44,676.794 1438.5,674.5C 1438.99,672.194 1439.33,669.861 1439.5,667.5 Z"/></g>
<g><path style="opacity:1" fill="#0c9844" d="M 622.5,754.5 C 634.494,767.327 646.994,779.661 660,791.5C 657.374,807.135 654.541,822.802 651.5,838.5C 636.926,826.762 623.426,813.762 611,799.5C 611.684,783.628 615.518,768.628 622.5,754.5 Z"/></g>
<g><path style="opacity:1" fill="#0e9844" d="M 899.5,762.5 C 903.747,781.648 906.581,800.981 908,820.5C 897.153,831.191 885.32,840.524 872.5,848.5C 870.311,830.866 867.311,813.366 863.5,796C 875.306,784.697 887.306,773.53 899.5,762.5 Z"/></g>
<g><path style="opacity:1" fill="#0b9844" d="M 964.5,796.5 C 966.998,830.475 969.165,864.475 971,898.5C 973.348,913.711 978.181,928.044 985.5,941.5C 974.388,934.438 963.055,927.604 951.5,921C 944.934,916.035 940.768,909.535 939,901.5C 935.34,878.296 933.34,854.963 933,831.5C 944.106,820.235 954.606,808.569 964.5,796.5 Z"/></g>
<g><path style="opacity:1" fill="#0b9844" d="M 855.5,857.5 C 855.439,859.592 854.439,861.092 852.5,862C 845.942,866.11 839.275,869.943 832.5,873.5C 816.595,867.214 800.928,860.381 785.5,853C 806.839,839.328 827.339,824.495 847,808.5C 848.831,813.64 850.165,818.973 851,824.5C 853.154,835.42 854.654,846.42 855.5,857.5 Z"/></g>
<g><path style="opacity:1" fill="#0c9844" d="M 697.5,879.5 C 690.583,874.757 684.083,869.424 678,863.5C 677.517,862.552 677.351,861.552 677.5,860.5C 677.742,843.701 679.242,827.034 682,810.5C 701.373,827.209 721.873,842.376 743.5,856C 728.731,864.935 713.397,872.769 697.5,879.5 Z"/></g>
<g><path style="opacity:1" fill="#fdfcfa" d="M 1424.5,814.5 C 1431.38,813.047 1436.88,815.047 1441,820.5C 1441.67,823.167 1441.67,825.833 1441,828.5C 1440.11,829.081 1439.11,829.415 1438,829.5C 1431.47,828.895 1424.97,828.228 1418.5,827.5C 1417.37,825.926 1417.2,824.259 1418,822.5C 1419.3,819.039 1421.47,816.372 1424.5,814.5 Z"/></g>
<g><path style="opacity:1" fill="#c8b787" d="M 114.5,820.5 C 128.475,818.646 136.642,824.646 139,838.5C 140.423,848.144 141.59,857.811 142.5,867.5C 141.5,867.5 140.5,867.5 139.5,867.5C 139.896,864.956 139.229,862.789 137.5,861C 122.028,861.226 106.694,862.893 91.5,866C 89.7215,868.135 89.0548,870.635 89.5,873.5C 88.5,873.5 87.5,873.5 86.5,873.5C 86.3104,864.409 85.3104,855.409 83.5,846.5C 84.675,846.281 85.675,846.614 86.5,847.5C 87.0736,849.059 87.7402,850.559 88.5,852C 94.5787,852.481 100.579,851.981 106.5,850.5C 105.778,843.841 105.611,837.175 106,830.5C 107.978,826.362 110.811,823.029 114.5,820.5 Z"/></g>
<g><path style="opacity:1" fill="#0b9844" d="M 671.5,890.5 C 651.651,897.879 631.318,903.546 610.5,907.5C 610.5,907.167 610.5,906.833 610.5,906.5C 615.305,905.232 619.971,903.565 624.5,901.5C 618.451,895.12 612.451,888.787 606.5,882.5C 605.902,872.687 605.568,862.854 605.5,853C 605.346,844.342 605.846,835.842 607,827.5C 616.136,837.637 625.636,847.47 635.5,857C 647.396,868.4 659.396,879.567 671.5,890.5 Z"/></g>
<g><path style="opacity:1" fill="#fdfdfb" d="M 118.5,833.5 C 123.179,833.334 127.845,833.501 132.5,834C 137.436,837.958 137.769,842.291 133.5,847C 125.6,848.814 117.6,849.647 109.5,849.5C 108.369,841.756 111.369,836.423 118.5,833.5 Z"/></g>
<g><path style="opacity:1" fill="#0a9844" d="M 910.5,851.5 C 911.493,859.984 911.826,868.651 911.5,877.5C 910.135,900.346 907.302,923.013 903,945.5C 896.667,969.829 890.833,994.162 885.5,1018.5C 883.155,1010.7 881.988,1002.7 882,994.5C 881.829,956.082 879.996,917.749 876.5,879.5C 876.215,877.712 876.548,876.045 877.5,874.5C 888.817,867.165 899.817,859.498 910.5,851.5 Z"/></g>
<g><path style="opacity:1" fill="#70b42e" d="M 910.5,851.5 C 910.56,850.957 910.893,850.624 911.5,850.5C 912.822,859.658 912.822,868.658 911.5,877.5C 911.826,868.651 911.493,859.984 910.5,851.5 Z"/></g>
<g><path style="opacity:1" fill="#c8b788" d="M 1397.5,866.5 C 1423.73,865.227 1435.9,877.561 1434,903.5C 1432.5,910.506 1430.33,917.173 1427.5,923.5C 1423.93,922.033 1420.26,920.866 1416.5,920C 1415.03,919.29 1414.36,918.124 1414.5,916.5C 1425.91,917.428 1431.57,912.095 1431.5,900.5C 1430.26,891.086 1424.93,885.253 1415.5,883C 1406.32,879.407 1397.32,879.74 1388.5,884C 1376.58,894.319 1376.58,904.652 1388.5,915C 1387.72,916.23 1386.72,916.563 1385.5,916C 1382.04,913.537 1378.87,910.704 1376,907.5C 1374.21,893.795 1378.05,881.961 1387.5,872C 1390.77,869.87 1394.1,868.037 1397.5,866.5 Z"/></g>
<g><path style="opacity:1" fill="#0a9844" d="M 802.5,890.5 C 786.428,900.624 769.594,909.624 752,917.5C 737.923,910.894 725.09,902.56 713.5,892.5C 729.335,884.331 745.168,875.997 761,867.5C 774.73,875.407 788.563,883.074 802.5,890.5 Z"/></g>
<g><path style="opacity:1" fill="#c8b687" d="M 137.5,870.5 C 144.655,869.915 151.988,869.915 159.5,870.5C 159.5,871.5 159.5,872.5 159.5,873.5C 154.807,873.898 150.474,875.398 146.5,878C 145.892,879.231 145.559,880.564 145.5,882C 148.121,895.984 151.288,909.817 155,923.5C 155.808,925.579 155.641,927.579 154.5,929.5C 153.289,927.578 151.956,925.745 150.5,924C 148.167,923.333 145.833,923.333 143.5,924C 131.926,926.986 120.26,929.652 108.5,932C 106.919,932.707 105.419,933.54 104,934.5C 103.814,936.9 103.314,939.234 102.5,941.5C 100.506,933.523 98.5059,925.523 96.5,917.5C 96.8333,916.833 97.1667,916.167 97.5,915.5C 98.624,916.914 99.624,918.414 100.5,920C 115.738,918.125 130.738,914.959 145.5,910.5C 146.344,906.52 146.177,902.52 145,898.5C 144.719,894.821 143.552,891.488 141.5,888.5C 127.162,891.935 112.829,895.435 98.5,899C 96.709,901.106 96.0423,903.606 96.5,906.5C 95.5,906.5 94.5,906.5 93.5,906.5C 92.4716,898.384 90.8049,890.384 88.5,882.5C 88.8333,881.833 89.1667,881.167 89.5,880.5C 90.9505,881.655 91.9505,883.155 92.5,885C 94.1667,885.167 95.8333,885.333 97.5,885.5C 111.234,882.697 124.901,879.697 138.5,876.5C 138.795,874.265 138.461,872.265 137.5,870.5 Z"/></g>
<g><path style="opacity:1" fill="#089844" d="M 856.5,887.5 C 857.494,897.987 857.828,908.654 857.5,919.5C 857.461,931.22 856.628,942.886 855,954.5C 854.831,948.141 854.331,941.807 853.5,935.5C 845.929,939.453 838.262,943.12 830.5,946.5C 812.637,942.712 795.304,937.212 778.5,930C 805.007,916.583 831.007,902.417 856.5,887.5 Z"/></g>
<g><path style="opacity:1" fill="#fbc303" d="M 671.5,890.5 C 677.321,894.723 682.654,899.389 687.5,904.5C 649.774,920.466 611.441,934.966 572.5,948C 566.695,950.067 561.362,952.901 556.5,956.5C 550.161,958.17 543.828,960.003 537.5,962C 520.661,970.028 505.661,980.528 492.5,993.5C 460.851,998.997 429.184,1004.5 397.5,1010C 384.284,1013.44 372.284,1019.28 361.5,1027.5C 348.179,991.622 355.512,960.789 383.5,935C 412.072,914.224 444.072,905.558 479.5,909C 497.186,910.479 514.852,912.146 532.5,914C 556.387,915.674 580.054,914.174 603.5,909.5C 606.067,909.279 608.401,908.612 610.5,907.5C 631.318,903.546 651.651,897.879 671.5,890.5 Z"/></g>
<g><path style="opacity:1" fill="#53a633" d="M 856.5,887.5 C 856.842,886.662 857.508,886.328 858.5,886.5C 858.828,897.679 858.495,908.679 857.5,919.5C 857.828,908.654 857.494,897.987 856.5,887.5 Z"/></g>
<g><path style="opacity:1" fill="#0e9844" d="M 687.5,904.5 C 698.657,912.811 709.991,920.977 721.5,929C 722.833,929.667 722.833,930.333 721.5,931C 695.315,939.238 668.648,945.571 641.5,950C 612.964,953.019 584.631,955.185 556.5,956.5C 561.362,952.901 566.695,950.067 572.5,948C 611.441,934.966 649.774,920.466 687.5,904.5 Z"/></g>
<g><path style="opacity:1" fill="#adb61b" d="M 610.5,906.5 C 610.5,906.833 610.5,907.167 610.5,907.5C 608.401,908.612 606.067,909.279 603.5,909.5C 603.5,909.167 603.5,908.833 603.5,908.5C 605.894,907.985 608.228,907.319 610.5,906.5 Z"/></g>
<g><path style="opacity:1" fill="#c8b788" d="M 1369.5,925.5 C 1371,925.415 1372,926.081 1372.5,927.5C 1370.94,930.614 1371.27,933.447 1373.5,936C 1387.9,941.433 1402.57,945.933 1417.5,949.5C 1419.07,945.307 1419.57,940.974 1419,936.5C 1416.65,933.983 1414.15,931.65 1411.5,929.5C 1411.83,928.5 1412.5,927.833 1413.5,927.5C 1418.03,929.595 1422.36,931.928 1426.5,934.5C 1420,949.994 1415.33,965.994 1412.5,982.5C 1407.08,980.953 1402.08,978.62 1397.5,975.5C 1401.12,974.675 1404.79,974.175 1408.5,974C 1410.85,970.143 1412.18,965.976 1412.5,961.5C 1399.77,957.978 1387.1,954.145 1374.5,950C 1371.83,949.333 1369.17,949.333 1366.5,950C 1365.78,952.67 1364.11,954.17 1361.5,954.5C 1364.92,945.055 1367.59,935.389 1369.5,925.5 Z"/></g>
<g><path style="opacity:1" fill="#fbc303" d="M 876.5,879.5 C 879.996,917.749 881.829,956.082 882,994.5C 881.988,1002.7 883.155,1010.7 885.5,1018.5C 885.084,1023.15 884.751,1027.82 884.5,1032.5C 886.17,1052.51 891.504,1071.51 900.5,1089.5C 900.161,1097.55 899.328,1105.55 898,1113.5C 892.431,1138.91 888.598,1164.58 886.5,1190.5C 886.885,1202.48 888.885,1214.15 892.5,1225.5C 841.98,1224.15 812.813,1198.48 805,1148.5C 802.855,1122.18 806.855,1096.85 817,1072.5C 827.837,1049.99 837.504,1026.99 846,1003.5C 850.342,988.782 853.175,973.782 854.5,958.5C 831.316,968.923 807.982,979.09 784.5,989C 759.349,997.384 735.016,1007.72 711.5,1020C 699.451,1024.93 694.951,1033.76 698,1046.5C 705.326,1069.82 712.66,1093.16 720,1116.5C 724.162,1136.46 723.162,1156.13 717,1175.5C 706.168,1199.99 687.668,1215.49 661.5,1222C 651.911,1224.37 642.244,1225.21 632.5,1224.5C 638.043,1212.62 640.709,1200.12 640.5,1187C 640.152,1176.75 638.986,1166.58 637,1156.5C 634.205,1142.86 631.538,1129.19 629,1115.5C 628.5,1107.51 628.334,1099.51 628.5,1091.5C 641.124,1072.25 651.124,1051.58 658.5,1029.5C 668.917,1018.25 680.917,1009.08 694.5,1002C 726.151,989.396 757.818,976.896 789.5,964.5C 803.708,959.656 817.375,953.656 830.5,946.5C 838.262,943.12 845.929,939.453 853.5,935.5C 854.331,941.807 854.831,948.141 855,954.5C 856.628,942.886 857.461,931.22 857.5,919.5C 858.495,908.679 858.828,897.679 858.5,886.5C 863.805,883.178 869.139,879.844 874.5,876.5C 875.176,877.602 875.842,878.602 876.5,879.5 Z"/></g>
<g><path style="opacity:1" fill="#0b9844" d="M 789.5,964.5 C 757.818,976.896 726.151,989.396 694.5,1002C 680.917,1009.08 668.917,1018.25 658.5,1029.5C 662.03,1018.02 664.864,1006.35 667,994.5C 668.449,989.601 670.449,984.935 673,980.5C 676.557,976.975 680.39,973.809 684.5,971C 704.803,961.289 725.47,952.455 746.5,944.5C 760.038,950.624 773.705,956.458 787.5,962C 788.756,962.417 789.423,963.25 789.5,964.5 Z"/></g>
<g><path style="opacity:1" fill="#049845" d="M 900.5,1089.5 C 911.633,1113.89 927.3,1135.06 947.5,1153C 970.795,1171.65 996.461,1186.15 1024.5,1196.5C 897.458,1269.2 763.125,1286.7 621.5,1249C 576.847,1235.84 534.847,1217 495.5,1192.5C 510.474,1186.18 525.141,1179.01 539.5,1171C 575.004,1150.99 604.671,1124.49 628.5,1091.5C 628.334,1099.51 628.5,1107.51 629,1115.5C 631.538,1129.19 634.205,1142.86 637,1156.5C 638.986,1166.58 640.152,1176.75 640.5,1187C 640.709,1200.12 638.043,1212.62 632.5,1224.5C 642.244,1225.21 651.911,1224.37 661.5,1222C 687.668,1215.49 706.168,1199.99 717,1175.5C 723.162,1156.13 724.162,1136.46 720,1116.5C 712.66,1093.16 705.326,1069.82 698,1046.5C 694.951,1033.76 699.451,1024.93 711.5,1020C 735.016,1007.72 759.349,997.384 784.5,989C 807.982,979.09 831.316,968.923 854.5,958.5C 853.175,973.782 850.342,988.782 846,1003.5C 837.504,1026.99 827.837,1049.99 817,1072.5C 806.855,1096.85 802.855,1122.18 805,1148.5C 812.813,1198.48 841.98,1224.15 892.5,1225.5C 888.885,1214.15 886.885,1202.48 886.5,1190.5C 888.598,1164.58 892.431,1138.91 898,1113.5C 899.328,1105.55 900.161,1097.55 900.5,1089.5 Z"/></g>
<g><path style="opacity:1" fill="#c8b788" d="M 143.5,933.5 C 148.179,933.334 152.845,933.501 157.5,934C 158,934.5 158.5,935 159,935.5C 165.541,957.955 173.374,979.955 182.5,1001.5C 182,1001.83 181.5,1002.17 181,1002.5C 179.457,1000.12 177.29,998.785 174.5,998.5C 168.39,1000.14 162.557,1002.47 157,1005.5C 158.608,1013.31 161.608,1020.64 166,1027.5C 171.858,1024.93 177.692,1022.27 183.5,1019.5C 184.167,1016.5 184.833,1013.5 185.5,1010.5C 189.466,1017.21 192.966,1024.21 196,1031.5C 197.564,1033.67 197.397,1035.33 195.5,1036.5C 193.674,1032.48 190.674,1030.98 186.5,1032C 173.323,1037.17 160.49,1043.01 148,1049.5C 147.424,1051.38 147.591,1053.21 148.5,1055C 148.387,1056.28 147.72,1057.11 146.5,1057.5C 142.894,1049.95 139.56,1042.29 136.5,1034.5C 136.833,1033.83 137.167,1033.17 137.5,1032.5C 138.833,1034.5 140.5,1036.17 142.5,1037.5C 148.208,1035.1 153.875,1032.6 159.5,1030C 160.517,1028.95 160.684,1027.78 160,1026.5C 157.526,1020.75 154.86,1015.08 152,1009.5C 151.439,1008.98 150.772,1008.64 150,1008.5C 144.655,1010.42 139.489,1012.76 134.5,1015.5C 133.833,1018.17 133.167,1020.83 132.5,1023.5C 128.594,1016.02 124.928,1008.35 121.5,1000.5C 122,1000.17 122.5,999.833 123,999.5C 124.419,1001.42 126.253,1002.76 128.5,1003.5C 142.393,998.221 156.06,992.387 169.5,986C 170.746,980.635 169.746,975.635 166.5,971C 151.02,973.546 136.02,978.046 121.5,984.5C 120.833,987.167 120.167,989.833 119.5,992.5C 115.042,979.128 110.375,965.794 105.5,952.5C 109.08,950.814 112.913,949.814 117,949.5C 117.833,949.833 118.667,950.167 119.5,950.5C 117.462,952.276 115.296,953.943 113,955.5C 112.866,961.428 114.532,966.762 118,971.5C 124.585,969.756 130.752,967.256 136.5,964C 135.406,959.706 133.739,955.706 131.5,952C 129.19,951.503 126.857,951.337 124.5,951.5C 124.5,950.5 124.5,949.5 124.5,948.5C 130.342,947.268 136.008,945.768 141.5,944C 141.957,944.414 142.291,944.914 142.5,945.5C 139.852,946.973 138.185,949.14 137.5,952C 138.608,955.821 139.608,959.655 140.5,963.5C 146.949,962.137 153.283,960.304 159.5,958C 160.154,951.937 158.988,946.104 156,940.5C 152.285,937.924 148.118,936.924 143.5,937.5C 143.5,936.167 143.5,934.833 143.5,933.5 Z"/></g>
<g><path style="opacity:1" fill="#c8b788" d="M 1350.5,975.5 C 1353.19,975.336 1355.85,975.503 1358.5,976C 1359.31,976.308 1359.97,976.808 1360.5,977.5C 1358.42,979.993 1356.59,982.659 1355,985.5C 1354.22,988.257 1354.72,990.757 1356.5,993C 1370.87,993.331 1385.2,992.664 1399.5,991C 1403.66,990.395 1406.66,988.228 1408.5,984.5C 1409.61,985.723 1409.78,987.056 1409,988.5C 1405.55,995.726 1402.39,1003.06 1399.5,1010.5C 1398.53,1008.6 1398.2,1006.6 1398.5,1004.5C 1388.46,1004.5 1378.46,1005.17 1368.5,1006.5C 1374.06,1013.23 1380.39,1019.06 1387.5,1024C 1390.65,1024.06 1392.98,1022.56 1394.5,1019.5C 1394.83,1020 1395.17,1020.5 1395.5,1021C 1392.79,1026.62 1390.79,1032.46 1389.5,1038.5C 1388.5,1038.5 1387.5,1038.5 1386.5,1038.5C 1386.66,1035.48 1386.5,1032.48 1386,1029.5C 1373.56,1018.07 1362.23,1005.73 1352,992.5C 1348.26,986.956 1347.76,981.289 1350.5,975.5 Z"/></g>
<g><path style="opacity:1" fill="#c8b788" d="M 1339.5,1026.5 C 1355.69,1024.68 1367.86,1030.68 1376,1044.5C 1377.53,1050.41 1377.86,1056.41 1377,1062.5C 1373.89,1072.06 1369.22,1080.73 1363,1088.5C 1358.83,1085.67 1354.67,1082.83 1350.5,1080C 1351.03,1079.31 1351.69,1078.81 1352.5,1078.5C 1362.53,1081.23 1369.03,1077.57 1372,1067.5C 1373.74,1057.82 1370.24,1050.65 1361.5,1046C 1352.9,1040.52 1343.57,1038.52 1333.5,1040C 1320.45,1047.24 1318.11,1057.08 1326.5,1069.5C 1325.64,1070.58 1324.64,1070.75 1323.5,1070C 1320.96,1067.09 1318.8,1063.93 1317,1060.5C 1318.73,1045.37 1326.23,1034.03 1339.5,1026.5 Z"/></g>
<g><path style="opacity:1" fill="#c8b687" d="M 182.5,1048.5 C 201.087,1046.57 213.254,1054.57 219,1072.5C 221.151,1091.34 212.985,1103.18 194.5,1108C 176.726,1108.85 165.226,1100.68 160,1083.5C 157.725,1071.88 161.225,1062.38 170.5,1055C 174.434,1052.54 178.434,1050.37 182.5,1048.5 Z"/></g>
<g><path style="opacity:1" fill="#fefdfd" d="M 196.5,1057.5 C 211.384,1058.25 215.884,1065.58 210,1079.5C 201.376,1092.73 189.209,1098.9 173.5,1098C 166.028,1092.23 164.528,1085.06 169,1076.5C 176.398,1067.56 185.565,1061.22 196.5,1057.5 Z"/></g>
<g><path style="opacity:1" fill="#c8b788" d="M 1313.5,1062.5 C 1314.68,1062.28 1315.68,1062.61 1316.5,1063.5C 1314.12,1067.08 1313.96,1070.75 1316,1074.5C 1325.52,1087.53 1335.52,1100.2 1346,1112.5C 1346.67,1113.83 1346.67,1115.17 1346,1116.5C 1344.95,1118.63 1343.45,1120.29 1341.5,1121.5C 1327.19,1118 1312.86,1114.5 1298.5,1111C 1294.83,1110.33 1291.17,1110.33 1287.5,1111C 1286.33,1112.17 1285.17,1113.33 1284,1114.5C 1283.31,1113.97 1282.81,1113.31 1282.5,1112.5C 1287.58,1105.34 1292.42,1098 1297,1090.5C 1297.69,1091.03 1298.19,1091.69 1298.5,1092.5C 1297.23,1094.37 1297.23,1096.2 1298.5,1098C 1303.04,1099.01 1307.54,1100.17 1312,1101.5C 1315.12,1098.63 1317.79,1095.3 1320,1091.5C 1320.98,1090.24 1321.32,1088.91 1321,1087.5C 1318.52,1084.05 1315.69,1080.88 1312.5,1078C 1309.21,1077.25 1306.71,1078.42 1305,1081.5C 1304.31,1080.97 1303.81,1080.31 1303.5,1079.5C 1307.61,1074.27 1310.95,1068.61 1313.5,1062.5 Z"/></g>
<g><path style="opacity:1" fill="#c8b788" d="M 244.5,1087.5 C 245.995,1087.41 246.995,1088.08 247.5,1089.5C 243.875,1092.62 240.375,1095.96 237,1099.5C 236.333,1100.83 236.333,1102.17 237,1103.5C 243.378,1112.42 249.878,1121.26 256.5,1130C 261.827,1129.84 266.827,1128.34 271.5,1125.5C 273.101,1126.03 273.601,1127.03 273,1128.5C 267.991,1132.34 263.491,1136.68 259.5,1141.5C 258.348,1139.18 256.515,1137.84 254,1137.5C 237.073,1141.4 220.407,1146.06 204,1151.5C 202.146,1149.98 200.646,1148.14 199.5,1146C 209.705,1131.76 219.538,1117.26 229,1102.5C 228.784,1099.98 228.117,1097.65 227,1095.5C 233.129,1093.3 238.962,1090.63 244.5,1087.5 Z"/></g>
<g><path style="opacity:1" fill="#fbfaf7" d="M 1324.5,1092.5 C 1328.48,1097.1 1332.48,1101.76 1336.5,1106.5C 1336,1106.83 1335.5,1107.17 1335,1107.5C 1329.42,1106.1 1323.92,1104.43 1318.5,1102.5C 1320.13,1098.89 1322.13,1095.55 1324.5,1092.5 Z"/></g>
<g><path style="opacity:1" fill="#fdfcfb" d="M 237.5,1113.5 C 239.017,1113.51 240.184,1114.18 241,1115.5C 244.833,1121.17 248.667,1126.83 252.5,1132.5C 241.177,1136.16 229.843,1139.83 218.5,1143.5C 217.479,1143 217.312,1142.33 218,1141.5C 224.263,1131.96 230.763,1122.63 237.5,1113.5 Z"/></g>
<g><path style="opacity:1" fill="#c8b787" d="M 1253.5,1152.5 C 1255.37,1152.86 1256.87,1153.86 1258,1155.5C 1260.18,1158.34 1262.35,1161.18 1264.5,1164C 1264.17,1164.5 1263.83,1165 1263.5,1165.5C 1260.12,1163.13 1256.46,1161.96 1252.5,1162C 1250.33,1164.17 1248.17,1166.33 1246,1168.5C 1245.22,1169.94 1245.39,1171.28 1246.5,1172.5C 1257.58,1182.42 1269.08,1191.75 1281,1200.5C 1283.5,1199.92 1285.5,1198.58 1287,1196.5C 1287.69,1197.03 1288.19,1197.69 1288.5,1198.5C 1282.17,1206.16 1275.51,1213.49 1268.5,1220.5C 1267.71,1218.67 1268.21,1217 1270,1215.5C 1270.67,1213.83 1270.67,1212.17 1270,1210.5C 1259.25,1199.39 1247.75,1189.56 1235.5,1181C 1231.82,1184.2 1229.66,1188.04 1229,1192.5C 1230.07,1195.21 1231.24,1197.87 1232.5,1200.5C 1232.19,1201.31 1231.69,1201.97 1231,1202.5C 1227.87,1198.37 1224.37,1194.53 1220.5,1191C 1232.81,1179.16 1243.81,1166.33 1253.5,1152.5 Z"/></g>
<g><path style="opacity:1" fill="#c8b788" d="M 285.5,1170.5 C 287.371,1170.86 288.871,1171.86 290,1173.5C 298.28,1183.62 307.113,1193.28 316.5,1202.5C 312.538,1205.49 308.538,1208.49 304.5,1211.5C 303.852,1208.87 304.685,1206.53 307,1204.5C 307.667,1202.5 307.667,1200.5 307,1198.5C 304.353,1194.69 301.187,1191.35 297.5,1188.5C 292.206,1192.13 287.539,1196.46 283.5,1201.5C 288.621,1206.12 292.788,1211.45 296,1217.5C 297.499,1232.66 290.665,1238.83 275.5,1236C 272.339,1234.59 269.339,1232.92 266.5,1231C 259.114,1223.28 252.114,1215.28 245.5,1207C 245.833,1206.5 246.167,1206 246.5,1205.5C 248.309,1207.49 250.476,1208.82 253,1209.5C 255.723,1208.46 258.223,1206.96 260.5,1205C 269.637,1196.86 278.47,1188.36 287,1179.5C 287.755,1176.5 286.922,1174 284.5,1172C 285.056,1171.62 285.389,1171.12 285.5,1170.5 Z"/></g>
<g><path style="opacity:1" fill="#fefefe" d="M 495.5,1192.5 C 534.847,1217 576.847,1235.84 621.5,1249C 763.125,1286.7 897.458,1269.2 1024.5,1196.5C 1039.85,1201.73 1055.52,1205.73 1071.5,1208.5C 1071.06,1210.07 1070.06,1211.24 1068.5,1212C 936.567,1298.47 793.234,1325.13 638.5,1292C 570.465,1275.85 508.132,1247.68 451.5,1207.5C 466.458,1203.29 481.125,1198.29 495.5,1192.5 Z"/></g>
<g><path style="opacity:1" fill="#fefdfd" d="M 278.5,1204.5 C 285.398,1206.62 287.898,1211.29 286,1218.5C 282.65,1226.26 276.816,1229.42 268.5,1228C 265.208,1225.59 264.041,1222.42 265,1218.5C 269.703,1213.96 274.203,1209.3 278.5,1204.5 Z"/></g>
<g><path style="opacity:1" fill="#c7b686" d="M 322.5,1209.5 C 329.451,1215.11 336.118,1221.11 342.5,1227.5C 342,1227.83 341.5,1228.17 341,1228.5C 338.775,1226.72 336.275,1226.22 333.5,1227C 323.667,1237.5 313.833,1248 304,1258.5C 303.333,1259.83 303.333,1261.17 304,1262.5C 306.079,1264.17 306.412,1265.84 305,1267.5C 298.336,1261.67 291.836,1255.67 285.5,1249.5C 285.808,1248.69 286.308,1248.03 287,1247.5C 289.448,1250.55 292.281,1251.05 295.5,1249C 304.218,1239.74 313.052,1230.57 322,1221.5C 323.308,1219.87 324.142,1218.03 324.5,1216C 323.582,1213.91 322.915,1211.75 322.5,1209.5 Z"/></g>
<g><path style="opacity:1" fill="#c8b787" d="M 1214.5,1195.5 C 1217.08,1198.95 1219.91,1202.28 1223,1205.5C 1223.6,1206.97 1223.1,1207.97 1221.5,1208.5C 1218.86,1206.17 1215.86,1205.01 1212.5,1205C 1209.04,1207.46 1205.87,1210.3 1203,1213.5C 1202.33,1214.5 1202.33,1215.5 1203,1216.5C 1207.35,1221.02 1211.85,1225.35 1216.5,1229.5C 1219.82,1226.68 1222.98,1223.68 1226,1220.5C 1226.68,1218.06 1226.18,1215.9 1224.5,1214C 1224.83,1213.5 1225.17,1213 1225.5,1212.5C 1229.83,1216.17 1233.83,1220.17 1237.5,1224.5C 1237.19,1225.31 1236.69,1225.97 1236,1226.5C 1232.97,1222.82 1229.81,1222.65 1226.5,1226C 1224.67,1227.83 1222.83,1229.67 1221,1231.5C 1220.48,1233.29 1220.81,1234.96 1222,1236.5C 1225.5,1240 1229,1243.5 1232.5,1247C 1233.83,1247.67 1235.17,1247.67 1236.5,1247C 1240.57,1244.05 1244.07,1240.55 1247,1236.5C 1247.77,1232.19 1247.27,1228.02 1245.5,1224C 1245.83,1223.5 1246.17,1223 1246.5,1222.5C 1251.27,1226.42 1253.44,1231.42 1253,1237.5C 1242.36,1247.14 1232.03,1257.14 1222,1267.5C 1221.31,1266.97 1220.81,1266.31 1220.5,1265.5C 1222.99,1262.9 1224.16,1259.9 1224,1256.5C 1213.98,1244.98 1203.15,1234.32 1191.5,1224.5C 1189.67,1225.25 1188,1226.25 1186.5,1227.5C 1185.69,1227.19 1185.03,1226.69 1184.5,1226C 1195.37,1216.63 1205.37,1206.46 1214.5,1195.5 Z"/></g>
<g><path style="opacity:1" fill="#c8b787" d="M 1182.5,1227.5 C 1185.78,1230.67 1188.61,1234.33 1191,1238.5C 1191.48,1239.45 1191.65,1240.45 1191.5,1241.5C 1188.14,1239.67 1184.64,1238 1181,1236.5C 1176.95,1238.12 1173.45,1240.62 1170.5,1244C 1180.13,1255.96 1190.13,1267.63 1200.5,1279C 1203.27,1279.21 1205.77,1278.38 1208,1276.5C 1208.5,1277 1209,1277.5 1209.5,1278C 1201.69,1284.31 1194.02,1290.81 1186.5,1297.5C 1185.46,1294.95 1186.29,1292.95 1189,1291.5C 1189.67,1289.83 1189.67,1288.17 1189,1286.5C 1179.83,1275.33 1170.67,1264.17 1161.5,1253C 1152.13,1255.4 1149.46,1261.07 1153.5,1270C 1153.17,1270.83 1152.83,1271.67 1152.5,1272.5C 1149.34,1268.5 1146.34,1264.33 1143.5,1260C 1157.31,1250.1 1170.31,1239.27 1182.5,1227.5 Z"/></g>
<g><path style="opacity:1" fill="#c8b687" d="M 349.5,1241.5 C 372.34,1244.16 382.84,1256.82 381,1279.5C 372.51,1299 358.343,1305.17 338.5,1298C 325.129,1290.76 319.629,1279.59 322,1264.5C 326.851,1251.47 336.017,1243.8 349.5,1241.5 Z"/></g>
<g><path style="opacity:1" fill="#fefefd" d="M 355.5,1247.5 C 368.672,1247.85 373.838,1254.51 371,1267.5C 366.764,1279.74 358.93,1288.9 347.5,1295C 341.731,1296.37 337.231,1294.53 334,1289.5C 330.754,1278.23 333.087,1268.23 341,1259.5C 345.172,1254.48 350.005,1250.48 355.5,1247.5 Z"/></g>
<g><path style="opacity:1" fill="#c8b687" d="M 1121.5,1275.5 C 1122.76,1275.46 1123.76,1275.96 1124.5,1277C 1121.42,1278.71 1120.25,1281.21 1121,1284.5C 1123.71,1288.75 1126.54,1292.92 1129.5,1297C 1134.65,1294.08 1139.99,1291.08 1145.5,1288C 1160.33,1287.44 1166.5,1294.6 1164,1309.5C 1162.92,1312 1161.59,1314.33 1160,1316.5C 1151.25,1323.75 1142.09,1330.41 1132.5,1336.5C 1131.69,1336.19 1131.03,1335.69 1130.5,1335C 1134.13,1332.75 1135.29,1329.58 1134,1325.5C 1125.96,1313.91 1117.79,1302.41 1109.5,1291C 1106.96,1290.38 1104.63,1290.88 1102.5,1292.5C 1102.17,1292 1101.83,1291.5 1101.5,1291C 1108.01,1285.66 1114.67,1280.5 1121.5,1275.5 Z"/></g>
<g><path style="opacity:1" fill="#c8b788" d="M 411.5,1283.5 C 415.024,1283.93 418.024,1285.43 420.5,1288C 414.833,1305.17 410.667,1322.67 408,1340.5C 408.972,1342.3 410.139,1343.97 411.5,1345.5C 411.192,1346.31 410.692,1346.97 410,1347.5C 402.883,1342.36 395.717,1337.36 388.5,1332.5C 390.787,1331.78 392.954,1331.45 395,1331.5C 399.511,1319.26 402.677,1306.93 404.5,1294.5C 394.729,1301.47 385.229,1308.8 376,1316.5C 375.254,1319.79 376.42,1322.29 379.5,1324C 378.975,1324.69 378.308,1325.19 377.5,1325.5C 371.833,1321.67 366.167,1317.83 360.5,1314C 361.025,1313.31 361.692,1312.81 362.5,1312.5C 367.106,1315.15 371.439,1314.65 375.5,1311C 387.969,1302.35 399.969,1293.19 411.5,1283.5 Z"/></g>
<g><path style="opacity:1" fill="#fcfcfa" d="M 1137.5,1296.5 C 1144.38,1295.89 1149.55,1298.56 1153,1304.5C 1157.97,1310.39 1157.47,1315.56 1151.5,1320C 1149.83,1320.67 1148.17,1320.67 1146.5,1320C 1141.64,1314.44 1137.14,1308.6 1133,1302.5C 1132.33,1301.5 1132.33,1300.5 1133,1299.5C 1134.65,1298.6 1136.15,1297.6 1137.5,1296.5 Z"/></g>
<g><path style="opacity:1" fill="#c8b787" d="M 1080.5,1302.5 C 1092.8,1312.99 1105.14,1323.49 1117.5,1334C 1120.83,1337.62 1124.5,1338.12 1128.5,1335.5C 1129.5,1335.83 1130.17,1336.5 1130.5,1337.5C 1123.07,1341.97 1115.57,1346.3 1108,1350.5C 1106.34,1349.05 1106.67,1347.71 1109,1346.5C 1109.67,1345.5 1109.67,1344.5 1109,1343.5C 1099.86,1334.93 1090.52,1326.6 1081,1318.5C 1082.23,1330.23 1084.23,1341.9 1087,1353.5C 1088.52,1356.63 1090.85,1357.3 1094,1355.5C 1095.06,1355.63 1095.89,1356.13 1096.5,1357C 1090.73,1360.63 1084.9,1364.13 1079,1367.5C 1078.5,1367.17 1078,1366.83 1077.5,1366.5C 1080.46,1364.21 1082.12,1361.21 1082.5,1357.5C 1080.68,1340.41 1077.68,1323.57 1073.5,1307C 1075.9,1305.48 1078.23,1303.98 1080.5,1302.5 Z"/></g>
<g><path style="opacity:1" fill="#c8b788" d="M 447.5,1309.5 C 465.05,1308.69 477.217,1316.36 484,1332.5C 485.371,1351.12 477.204,1363.29 459.5,1369C 445.786,1369.89 434.953,1364.73 427,1353.5C 420.555,1337.65 424.055,1324.49 437.5,1314C 440.815,1312.17 444.149,1310.67 447.5,1309.5 Z"/></g>
<g><path style="opacity:1" fill="#fefefd" d="M 454.5,1314.5 C 469.638,1314.84 475.138,1322.51 471,1337.5C 468.361,1347.97 462.861,1356.47 454.5,1363C 445.601,1366.47 439.768,1363.63 437,1354.5C 435.51,1337.83 441.344,1324.49 454.5,1314.5 Z"/></g>
<g><path style="opacity:1" fill="#c8b787" d="M 1056.5,1316.5 C 1057.5,1316.47 1058.16,1316.97 1058.5,1318C 1057.01,1320.16 1055.51,1322.32 1054,1324.5C 1053.83,1326.5 1053.67,1328.5 1053.5,1330.5C 1055.25,1347.26 1054.75,1363.93 1052,1380.5C 1046.5,1390.76 1041.34,1390.76 1036.5,1380.5C 1040.19,1379.75 1043.86,1378.91 1047.5,1378C 1049.92,1376 1050.76,1373.5 1050,1370.5C 1038.79,1360.95 1027.29,1351.79 1015.5,1343C 1012.47,1342.5 1009.47,1342.67 1006.5,1343.5C 1006.28,1342.32 1006.61,1341.32 1007.5,1340.5C 1014.83,1336.83 1022.17,1333.17 1029.5,1329.5C 1032.19,1331.02 1032.02,1332.36 1029,1333.5C 1028.33,1334.5 1028.33,1335.5 1029,1336.5C 1035.73,1343.06 1042.89,1349.06 1050.5,1354.5C 1051.34,1345.08 1050.67,1335.75 1048.5,1326.5C 1045.88,1326.23 1043.38,1326.56 1041,1327.5C 1040.31,1326.97 1039.81,1326.31 1039.5,1325.5C 1045.54,1323.05 1051.21,1320.05 1056.5,1316.5 Z"/></g>
<g><path style="opacity:1" fill="#c8b787" d="M 495.5,1330.5 C 506.85,1335.23 518.183,1340.06 529.5,1345C 531.74,1345.98 534.073,1346.48 536.5,1346.5C 534.133,1351.56 531.466,1356.56 528.5,1361.5C 527.692,1361.19 527.025,1360.69 526.5,1360C 527.626,1356.26 527.793,1352.42 527,1348.5C 523.062,1346.12 518.896,1344.12 514.5,1342.5C 513.522,1342.98 512.689,1343.64 512,1344.5C 506.861,1356.92 501.528,1369.25 496,1381.5C 495.333,1383.17 495.333,1384.83 496,1386.5C 497.745,1387.96 499.578,1389.29 501.5,1390.5C 501.167,1391.5 500.5,1392.17 499.5,1392.5C 491.305,1388.94 483.305,1385.11 475.5,1381C 475.667,1380.5 475.833,1380 476,1379.5C 478.333,1380.83 480.667,1380.83 483,1379.5C 489.418,1365.91 495.252,1352.08 500.5,1338C 498.548,1335.57 496.881,1333.07 495.5,1330.5 Z"/></g>
<g><path style="opacity:1" fill="#c8b687" d="M 564.5,1358.5 C 561.315,1358.02 558.481,1358.69 556,1360.5C 550.768,1374.2 545.935,1388.03 541.5,1402C 541.667,1402.83 541.833,1403.67 542,1404.5C 543.918,1405.54 545.751,1406.71 547.5,1408C 547.167,1408.33 546.833,1408.67 546.5,1409C 537.957,1406.6 529.457,1403.76 521,1400.5C 520.312,1399.67 520.479,1399 521.5,1398.5C 524.291,1400.04 526.791,1399.71 529,1397.5C 533.47,1385.09 538.137,1372.76 543,1360.5C 544.418,1355.61 542.918,1352.11 538.5,1350C 538.833,1349.67 539.167,1349.33 539.5,1349C 547.063,1351.43 554.73,1353.93 562.5,1356.5C 563.713,1356.75 564.38,1357.41 564.5,1358.5 Z"/></g>
<g><path style="opacity:1" fill="#c8b687" d="M 999.5,1341.5 C 1001.5,1341.5 1003.5,1341.5 1005.5,1341.5C 1005.5,1344.5 1005.5,1347.5 1005.5,1350.5C 1002.84,1350.16 1000.51,1350.83 998.5,1352.5C 996.521,1359.01 995.188,1365.68 994.5,1372.5C 996.655,1372.37 998.655,1372.87 1000.5,1374C 1007.32,1379.25 1014.32,1384.25 1021.5,1389C 1024.23,1389.73 1026.9,1389.56 1029.5,1388.5C 1030.5,1388.83 1031.17,1389.5 1031.5,1390.5C 1024.48,1394.13 1017.14,1395.96 1009.5,1396C 1002.98,1391.24 996.652,1386.24 990.5,1381C 988.55,1379.5 986.55,1379.34 984.5,1380.5C 986.507,1387.02 989.007,1393.35 992,1399.5C 994.8,1400.13 997.634,1400.79 1000.5,1401.5C 992.2,1404.82 983.867,1408.16 975.5,1411.5C 974.479,1411 974.312,1410.33 975,1409.5C 977.4,1408.6 978.9,1406.94 979.5,1404.5C 975.14,1390.08 969.807,1376.08 963.5,1362.5C 960.833,1361.83 958.167,1361.17 955.5,1360.5C 963.302,1357 971.302,1353.67 979.5,1350.5C 980.583,1351.36 980.749,1352.36 980,1353.5C 977.952,1354.1 976.785,1355.43 976.5,1357.5C 978.144,1364.28 980.644,1370.62 984,1376.5C 988.749,1374.75 991.749,1371.42 993,1366.5C 993.182,1360.1 993.848,1353.77 995,1347.5C 996.332,1345.34 997.832,1343.34 999.5,1341.5 Z"/></g>
<g><path style="opacity:1" fill="#c8b787" d="M 564.5,1358.5 C 572.631,1360.33 580.631,1362.66 588.5,1365.5C 584.95,1365.69 582.45,1367.36 581,1370.5C 579.194,1375.38 578.527,1380.38 579,1385.5C 582.294,1390.9 587.128,1393.23 593.5,1392.5C 595.038,1386.15 596.704,1379.82 598.5,1373.5C 598.333,1372.83 598.167,1372.17 598,1371.5C 595.863,1370.52 594.029,1369.19 592.5,1367.5C 593,1367.17 593.5,1366.83 594,1366.5C 602.438,1368.81 610.605,1371.47 618.5,1374.5C 616.577,1375.31 614.577,1375.81 612.5,1376C 611.299,1376.9 610.465,1378.07 610,1379.5C 606.841,1389.8 603.841,1400.14 601,1410.5C 600.111,1414.15 599.778,1417.82 600,1421.5C 601.745,1422.96 603.578,1424.29 605.5,1425.5C 603.579,1426.64 601.579,1426.81 599.5,1426C 592.183,1423.99 585.183,1421.49 578.5,1418.5C 581.086,1417.52 583.753,1417.19 586.5,1417.5C 588.109,1410.23 590.109,1403.06 592.5,1396C 583.125,1397.09 574.958,1394.59 568,1388.5C 566.128,1386.56 565.295,1384.23 565.5,1381.5C 566.517,1376.1 567.851,1370.76 569.5,1365.5C 567.605,1363.37 565.938,1361.04 564.5,1358.5 Z"/></g>
<g><path style="opacity:1" fill="#c8b787" d="M 932.5,1365.5 C 933.675,1365.28 934.675,1365.61 935.5,1366.5C 944.863,1381.7 955.196,1396.2 966.5,1410C 968.577,1410.19 970.577,1410.69 972.5,1411.5C 964.271,1414.31 955.938,1416.98 947.5,1419.5C 946.614,1418.68 946.281,1417.68 946.5,1416.5C 948.912,1416.76 950.579,1415.76 951.5,1413.5C 948.887,1408.73 945.721,1404.39 942,1400.5C 937.441,1401.43 932.941,1402.6 928.5,1404C 927.065,1408.72 926.565,1413.55 927,1418.5C 929.481,1420.31 932.315,1420.98 935.5,1420.5C 935.5,1421.5 935.5,1422.5 935.5,1423.5C 928.328,1424.53 921.328,1426.2 914.5,1428.5C 914.281,1427.32 914.614,1426.32 915.5,1425.5C 917.753,1424.75 919.587,1423.41 921,1421.5C 923.437,1403.53 925.603,1385.53 927.5,1367.5C 929.336,1366.97 931.003,1366.31 932.5,1365.5 Z"/></g>
<g><path style="opacity:1" fill="#c8b787" d="M 621.5,1373.5 C 630.114,1375.15 638.781,1376.49 647.5,1377.5C 647.5,1378.5 647.5,1379.5 647.5,1380.5C 645.208,1380.24 643.041,1380.58 641,1381.5C 638.861,1388 637.695,1394.67 637.5,1401.5C 645.093,1403.04 652.76,1404.04 660.5,1404.5C 661.771,1397.88 662.271,1391.21 662,1384.5C 660.89,1382.96 659.39,1382.3 657.5,1382.5C 657.351,1381.45 657.517,1380.45 658,1379.5C 666.316,1381.87 674.816,1383.2 683.5,1383.5C 683.5,1384.5 683.5,1385.5 683.5,1386.5C 681.08,1386.29 678.747,1386.63 676.5,1387.5C 671.868,1402.83 669.368,1418.49 669,1434.5C 670.78,1435.59 672.614,1436.59 674.5,1437.5C 665.3,1438 656.3,1436.66 647.5,1433.5C 649.423,1432.69 651.423,1432.19 653.5,1432C 654.701,1431.1 655.535,1429.93 656,1428.5C 656.738,1422.13 657.571,1415.8 658.5,1409.5C 650.85,1408.28 643.183,1407.28 635.5,1406.5C 634.745,1412.69 633.745,1418.86 632.5,1425C 632.667,1425.83 632.833,1426.67 633,1427.5C 635.137,1428.48 636.971,1429.81 638.5,1431.5C 637.833,1431.83 637.167,1432.17 636.5,1432.5C 628.277,1430.43 619.944,1429.1 611.5,1428.5C 611.5,1427.5 611.5,1426.5 611.5,1425.5C 613.857,1425.66 616.19,1425.5 618.5,1425C 619.525,1422.93 620.358,1420.76 621,1418.5C 623.492,1405.9 625.659,1393.23 627.5,1380.5C 626.588,1377.7 624.588,1376.37 621.5,1376.5C 621.5,1375.5 621.5,1374.5 621.5,1373.5 Z"/></g>
<g><path style="opacity:1" fill="#cab98b" d="M 770.5,1373.5 C 772.584,1375.08 774.584,1376.91 776.5,1379C 783.39,1380.65 789.057,1378.81 793.5,1373.5C 794.294,1377.09 792.961,1379.93 789.5,1382C 781.866,1387.08 774.699,1386.58 768,1380.5C 767.333,1379.17 767.333,1377.83 768,1376.5C 769.045,1375.63 769.878,1374.63 770.5,1373.5 Z"/></g>
<g><path style="opacity:1" fill="#c8b687" d="M 879.5,1375.5 C 885.872,1375.67 886.038,1377 880,1379.5C 879.506,1381.13 879.34,1382.8 879.5,1384.5C 901.034,1383.54 909.2,1393.54 904,1414.5C 899.862,1420.79 894.029,1424.46 886.5,1425.5C 886.662,1430.56 889.329,1432.89 894.5,1432.5C 887.349,1434.79 880.016,1436.45 872.5,1437.5C 871.5,1437.17 870.5,1436.83 869.5,1436.5C 870.655,1435.05 872.155,1434.05 874,1433.5C 874.494,1431.87 874.66,1430.2 874.5,1428.5C 855.06,1429.89 846.227,1420.89 848,1401.5C 851.878,1393.95 857.878,1388.95 866,1386.5C 866.667,1385.17 866.667,1383.83 866,1382.5C 863.853,1381.89 861.686,1381.22 859.5,1380.5C 859.709,1379.91 860.043,1379.41 860.5,1379C 867.062,1378.33 873.396,1377.16 879.5,1375.5 Z"/></g>
<g><path style="opacity:1" fill="#fcfbf8" d="M 928.5,1380.5 C 932.857,1384.83 936.524,1389.83 939.5,1395.5C 936.054,1397.28 932.387,1398.28 928.5,1398.5C 928.5,1392.5 928.5,1386.5 928.5,1380.5 Z"/></g>
<g><path style="opacity:1" fill="#fcfbf9" d="M 880.5,1387.5 C 884.544,1388.03 887.71,1390.03 890,1393.5C 894.516,1402.34 895.182,1411.34 892,1420.5C 890.13,1422.22 887.963,1423.22 885.5,1423.5C 883.618,1411.54 881.951,1399.54 880.5,1387.5 Z"/></g>
<g><path style="opacity:1" fill="#c8b687" d="M 684.5,1385.5 C 693.322,1385.51 701.988,1386.51 710.5,1388.5C 707.789,1389.04 705.623,1390.37 704,1392.5C 702.848,1403.83 702.182,1415.16 702,1426.5C 710.704,1417.46 719.038,1408.13 727,1398.5C 728.677,1393.35 726.844,1390.35 721.5,1389.5C 730.132,1389.01 738.798,1389.01 747.5,1389.5C 747.5,1390.5 747.5,1391.5 747.5,1392.5C 745.208,1392.24 743.041,1392.58 741,1393.5C 738.531,1409.07 737.531,1424.74 738,1440.5C 739.789,1442.23 741.956,1442.9 744.5,1442.5C 744.5,1443.5 744.5,1444.5 744.5,1445.5C 735.53,1444.47 726.53,1443.81 717.5,1443.5C 717.5,1442.5 717.5,1441.5 717.5,1440.5C 722.118,1441.69 724.618,1440.02 725,1435.5C 726.184,1425.19 726.518,1414.85 726,1404.5C 718.371,1413.8 710.371,1422.8 702,1431.5C 701.333,1433.83 701.333,1436.17 702,1438.5C 703.987,1439.22 705.821,1440.22 707.5,1441.5C 698.552,1441.79 689.552,1441.79 680.5,1441.5C 680.5,1440.5 680.5,1439.5 680.5,1438.5C 682.861,1438.33 685.194,1437.99 687.5,1437.5C 690.105,1421.62 691.271,1405.62 691,1389.5C 688.286,1388.79 686.119,1387.46 684.5,1385.5 Z"/></g>
<g><path style="opacity:1" fill="#c8b787" d="M 786.5,1388.5 C 795.192,1388.17 803.859,1388.5 812.5,1389.5C 810.368,1390.6 808.202,1391.6 806,1392.5C 805.047,1408.26 805.714,1423.93 808,1439.5C 809.916,1440.93 812.083,1441.93 814.5,1442.5C 805.527,1443.56 796.527,1444.22 787.5,1444.5C 787.5,1443.5 787.5,1442.5 787.5,1441.5C 789.467,1441.74 791.301,1441.41 793,1440.5C 793.833,1428.49 793.666,1416.49 792.5,1404.5C 785.527,1414.64 778.361,1424.64 771,1434.5C 769.816,1439.83 771.983,1442.83 777.5,1443.5C 768.532,1444.62 759.532,1445.29 750.5,1445.5C 750.5,1444.5 750.5,1443.5 750.5,1442.5C 752.792,1442.76 754.959,1442.42 757,1441.5C 757.919,1425.79 757.586,1410.12 756,1394.5C 754.211,1392.77 752.044,1392.1 749.5,1392.5C 749.5,1391.5 749.5,1390.5 749.5,1389.5C 758.192,1389.17 766.859,1389.5 775.5,1390.5C 774.009,1392.01 772.176,1393.01 770,1393.5C 769.445,1405.19 769.779,1416.85 771,1428.5C 778,1418.83 785,1409.17 792,1399.5C 792.497,1397.19 792.663,1394.86 792.5,1392.5C 790.5,1392.17 788.5,1391.83 786.5,1391.5C 786.5,1390.5 786.5,1389.5 786.5,1388.5 Z"/></g>
<g><path style="opacity:1" fill="#fcfbf9" d="M 865.5,1389.5 C 866.5,1389.5 867.5,1389.5 868.5,1389.5C 869.663,1401.64 871.663,1413.64 874.5,1425.5C 871.231,1425.12 868.397,1423.78 866,1421.5C 860.913,1413.91 858.913,1405.57 860,1396.5C 861.666,1394 863.5,1391.67 865.5,1389.5 Z"/></g>
</svg>
